<svg width="2560" height="549" viewBox="0 0 2560 549" fill="none" xmlns="http://www.w3.org/2000/svg">
<rect width="2560" height="549" fill="#3D45FB"/>
<path d="M862.472 263.68C862.472 264.576 862.088 265.024 861.32 265.024C861.064 265.024 860.84 265.024 860.648 265.024C860.456 264.96 860.296 264.8 860.168 264.544C860.104 264.416 860.008 264.128 859.88 263.68C859.816 263.168 859.784 262.816 859.784 262.624C859.464 260.704 858.984 258.592 858.344 256.288C857.768 253.92 856.84 252 855.56 250.528C854.92 249.76 853.832 249.248 852.296 248.992C850.76 248.736 849.192 248.608 847.592 248.608C845.992 248.608 844.744 248.608 843.848 248.608C842.888 248.608 841.704 248.608 840.296 248.608C838.952 248.608 837.736 248.864 836.648 249.376C835.624 249.888 835.112 250.912 835.112 252.448C835.112 262.112 835.144 271.808 835.208 281.536C835.336 291.2 835.4 300.896 835.4 310.624C835.4 311.456 835.752 312.096 836.456 312.544C837.16 312.928 837.96 313.184 838.856 313.312C839.752 313.44 840.488 313.504 841.064 313.504C841.576 313.504 842.024 313.504 842.408 313.504C842.856 313.44 843.304 313.408 843.752 313.408C844.392 313.408 844.712 313.696 844.712 314.272C844.712 314.528 844.712 314.912 844.712 315.424C844.712 315.872 844.488 316.096 844.04 316.096C841.736 316.096 839.432 316.064 837.128 316C834.888 315.872 832.616 315.808 830.312 315.808C827.24 315.808 824.104 315.904 820.904 316.096C820.2 316.096 819.464 316.128 818.696 316.192C817.928 316.256 817.192 316.288 816.488 316.288C815.912 316.288 815.624 315.936 815.624 315.232C815.624 314.464 815.72 313.984 815.912 313.792C816.104 313.6 816.552 313.504 817.256 313.504C817.384 313.504 817.512 313.536 817.64 313.6C817.832 313.6 817.96 313.6 818.024 313.6C818.728 313.6 819.624 313.536 820.712 313.408C821.8 313.28 822.76 313.024 823.592 312.64C824.488 312.192 824.936 311.52 824.936 310.624C825 305.696 825.032 300.768 825.032 295.84C825.096 290.912 825.128 285.984 825.128 281.056C825.128 276.192 825.096 271.36 825.032 266.56C824.968 261.696 824.936 256.832 824.936 251.968C824.936 251.2 824.616 250.496 823.976 249.856C823.4 249.216 822.76 248.864 822.056 248.8C821.48 248.672 820.872 248.608 820.232 248.608C819.656 248.608 819.048 248.608 818.408 248.608H809.864C807.56 248.608 805.832 249.184 804.68 250.336C803.592 251.424 802.824 252.864 802.376 254.656C801.928 256.384 801.512 258.176 801.128 260.032C801.128 260.16 801.032 260.608 800.84 261.376C800.712 262.08 800.552 262.784 800.36 263.488C800.232 264.128 800.136 264.48 800.072 264.544C799.816 264.864 799.432 265.024 798.92 265.024C798.216 265.024 797.864 264.672 797.864 263.968C797.864 263.712 797.864 263.392 797.864 263.008C797.928 262.56 797.992 262.048 798.056 261.472C798.184 260 798.28 258.24 798.344 256.192C798.472 254.08 798.568 252.128 798.632 250.336C798.696 249.696 798.728 249.056 798.728 248.416C798.728 247.776 798.76 247.2 798.824 246.688C798.824 245.792 799.368 245.408 800.456 245.536C805.128 245.984 809.832 246.208 814.568 246.208C819.368 246.144 824.104 246.112 828.776 246.112H836.936C839.56 246.112 842.184 246.112 844.808 246.112C847.496 246.048 850.184 245.984 852.872 245.92C854.024 245.856 855.208 245.824 856.424 245.824C857.704 245.76 858.952 245.728 860.168 245.728C861 245.728 861.48 246.048 861.608 246.688C861.672 246.88 861.736 247.584 861.8 248.8C861.864 249.952 861.928 251.296 861.992 252.832C862.056 254.304 862.088 255.712 862.088 257.056C862.152 258.336 862.184 259.232 862.184 259.744C862.248 260.384 862.312 261.024 862.376 261.664C862.44 262.304 862.472 262.976 862.472 263.68ZM905.041 273.28C905.041 273.92 904.785 274.528 904.273 275.104C903.825 275.616 903.249 275.872 902.545 275.872C901.585 275.872 900.881 275.552 900.433 274.912C900.049 274.272 899.697 273.536 899.377 272.704C899.121 271.872 898.705 271.136 898.129 270.496C897.553 269.856 896.593 269.536 895.249 269.536C894.993 269.536 894.737 269.536 894.481 269.536C894.289 269.536 894.065 269.568 893.809 269.632C892.721 269.824 891.537 270.496 890.257 271.648C888.977 272.8 887.729 274.176 886.513 275.776C885.361 277.312 884.401 278.848 883.633 280.384C882.865 281.92 882.449 283.2 882.385 284.224C882.321 285.248 882.289 286.272 882.289 287.296C882.289 288.256 882.289 289.216 882.289 290.176C882.289 293.632 882.289 297.088 882.289 300.544C882.353 304 882.385 307.424 882.385 310.816C882.385 311.776 882.769 312.48 883.537 312.928C884.369 313.312 885.201 313.504 886.033 313.504C886.673 313.504 887.313 313.472 887.953 313.408C888.593 313.344 889.233 313.312 889.873 313.312C890.193 313.312 890.417 313.472 890.545 313.792C890.673 314.048 890.737 314.304 890.737 314.56C890.737 315.584 890.225 316.096 889.201 316.096C887.281 316.096 885.361 316.064 883.441 316C881.521 315.872 879.601 315.808 877.681 315.808C875.697 315.808 873.681 315.872 871.633 316C869.649 316.128 867.633 316.192 865.585 316.192C865.329 316.192 865.137 316 865.009 315.616C864.945 315.232 864.913 314.912 864.913 314.656C864.913 314.016 865.169 313.664 865.681 313.6C866.385 313.472 867.121 313.44 867.889 313.504C868.657 313.568 869.361 313.6 870.001 313.6C870.961 313.6 871.729 313.408 872.305 313.024C872.945 312.576 873.297 311.84 873.361 310.816C873.489 308.768 873.553 306.688 873.553 304.576C873.617 302.464 873.649 300.352 873.649 298.24V288.928C873.585 286.176 873.553 283.456 873.553 280.768C873.617 278.016 873.521 275.296 873.265 272.608C873.201 271.328 872.849 270.432 872.209 269.92C871.569 269.344 870.609 269.056 869.329 269.056C868.817 269.056 868.273 269.12 867.697 269.248C867.185 269.312 866.641 269.344 866.065 269.344C865.553 269.344 865.297 268.96 865.297 268.192C865.297 267.744 865.521 267.424 865.969 267.232C866.609 267.04 867.281 266.912 867.985 266.848C868.689 266.72 869.361 266.624 870.001 266.56C871.729 266.24 873.457 265.92 875.185 265.6C876.913 265.28 878.641 264.896 880.369 264.448C880.945 264.64 881.361 264.992 881.617 265.504C881.745 265.76 881.841 266.464 881.905 267.616C881.969 268.768 882.001 270.112 882.001 271.648C882.001 273.12 882.001 274.528 882.001 275.872C882.001 277.152 882.001 278.048 882.001 278.56C883.409 276.32 885.009 274.08 886.801 271.84C888.593 269.6 890.641 267.744 892.945 266.272C895.249 264.8 897.841 264.064 900.721 264.064C902.257 264.064 903.249 264.544 903.697 265.504C904.145 266.464 904.433 267.584 904.561 268.864C904.689 269.568 904.785 270.304 904.849 271.072C904.977 271.84 905.041 272.576 905.041 273.28ZM936.37 314.56C936.37 314.88 936.274 315.2 936.082 315.52C935.89 315.776 935.634 315.904 935.314 315.904C933.522 315.904 931.73 315.872 929.938 315.808C928.21 315.68 926.418 315.616 924.562 315.616H921.97C920.05 315.616 918.13 315.68 916.21 315.808C914.354 315.872 912.498 315.904 910.642 315.904C910.386 315.904 910.194 315.744 910.066 315.424C910.002 315.104 909.97 314.848 909.97 314.656C909.97 314.336 910.002 314.112 910.066 313.984C910.13 313.792 910.322 313.664 910.642 313.6C910.962 313.472 911.314 313.44 911.698 313.504C912.146 313.504 912.562 313.504 912.946 313.504C913.394 313.504 913.81 313.536 914.194 313.6C914.578 313.6 914.994 313.6 915.442 313.6C916.338 313.6 917.138 313.408 917.842 313.024C918.61 312.576 918.994 311.84 918.994 310.816V272.416C918.994 271.328 918.802 270.496 918.418 269.92C918.034 269.28 917.234 268.96 916.018 268.96C915.122 268.96 914.194 269.024 913.234 269.152C912.338 269.216 911.442 269.312 910.546 269.44C910.034 269.44 909.778 269.152 909.778 268.576C909.778 267.936 910.034 267.52 910.546 267.328C911.314 267.072 912.114 266.912 912.946 266.848C913.842 266.72 914.674 266.592 915.442 266.464C917.234 266.144 919.026 265.792 920.818 265.408C922.61 265.024 924.37 264.608 926.098 264.16C926.29 264.096 926.546 264.064 926.866 264.064C927.57 264.064 927.922 264.448 927.922 265.216C927.922 272.768 927.89 280.352 927.826 287.968C927.826 295.584 927.826 303.2 927.826 310.816C927.826 311.84 928.274 312.576 929.17 313.024C930.13 313.408 931.026 313.6 931.858 313.6C932.498 313.6 933.138 313.568 933.778 313.504C934.482 313.44 935.154 313.408 935.794 313.408C936.05 313.408 936.21 313.568 936.274 313.888C936.338 314.208 936.37 314.432 936.37 314.56ZM928.594 248.128C928.594 249.728 928.018 251.104 926.866 252.256C925.714 253.344 924.338 253.888 922.738 253.888C921.138 253.888 919.762 253.344 918.609 252.256C917.458 251.104 916.882 249.728 916.882 248.128C916.882 246.528 917.458 245.184 918.609 244.096C919.762 242.944 921.138 242.368 922.738 242.368C924.338 242.368 925.714 242.944 926.866 244.096C928.018 245.184 928.594 246.528 928.594 248.128ZM983.77 288.544C983.77 286.368 983.642 284.096 983.386 281.728C983.13 279.296 982.586 277.024 981.754 274.912C980.922 272.8 979.674 271.104 978.01 269.824C976.346 268.48 974.074 267.808 971.194 267.808C969.466 267.808 967.61 268.256 965.626 269.152C963.706 269.984 962.01 271.136 960.538 272.608C959.13 274.08 958.33 275.776 958.138 277.696C958.01 279.68 957.946 281.696 957.946 283.744C957.946 285.792 957.946 287.84 957.946 289.888C957.946 291.68 957.946 293.504 957.946 295.36C958.01 297.152 958.074 298.976 958.138 300.832C958.33 304.096 959.386 306.88 961.306 309.184C963.226 311.424 965.946 312.544 969.466 312.544C972.794 312.544 975.418 311.808 977.338 310.336C979.258 308.8 980.666 306.816 981.562 304.384C982.522 301.952 983.13 299.36 983.386 296.608C983.642 293.792 983.77 291.104 983.77 288.544ZM993.658 288.64C993.658 293.632 992.762 298.144 990.97 302.176C989.178 306.208 986.49 309.408 982.906 311.776C979.386 314.08 974.97 315.232 969.658 315.232C967.61 315.232 965.498 314.72 963.322 313.696C961.21 312.608 959.418 311.36 957.946 309.952V330.4C957.946 331.296 958.298 331.808 959.002 331.936C959.77 332.064 960.474 332.128 961.114 332.128C961.69 332.128 962.266 332.096 962.842 332.032C963.418 331.968 963.994 331.936 964.57 331.936C965.402 331.936 965.818 332.352 965.818 333.184C965.818 334.144 965.338 334.624 964.378 334.624C962.394 334.624 960.41 334.56 958.426 334.432C956.442 334.304 954.458 334.24 952.474 334.24C950.81 334.24 949.146 334.304 947.482 334.432C945.882 334.56 944.25 334.624 942.586 334.624C942.138 334.624 941.85 334.464 941.722 334.144C941.658 333.824 941.626 333.536 941.626 333.28C941.626 332.384 942.074 331.936 942.97 331.936C943.482 331.936 943.994 331.936 944.506 331.936C945.018 332 945.53 332.032 946.042 332.032C946.49 332.032 947.13 331.968 947.962 331.84C948.858 331.712 949.306 331.328 949.306 330.688C949.306 324.032 949.306 317.344 949.306 310.624C949.37 303.904 949.402 297.216 949.402 290.56C949.402 287.552 949.37 284.576 949.306 281.632C949.306 278.688 949.274 275.744 949.21 272.8C949.146 271.392 948.89 270.432 948.442 269.92C947.994 269.344 947.034 269.056 945.562 269.056C944.922 269.056 944.282 269.152 943.642 269.344C943.002 269.472 942.362 269.536 941.722 269.536C941.018 269.536 940.666 269.216 940.666 268.576C940.666 268 940.954 267.616 941.53 267.424C941.658 267.36 942.234 267.232 943.258 267.04C944.282 266.848 945.498 266.624 946.906 266.368C948.378 266.048 949.818 265.76 951.226 265.504C952.634 265.248 953.818 265.024 954.778 264.832C955.738 264.64 956.25 264.544 956.314 264.544C956.826 264.544 957.178 264.864 957.37 265.504C957.498 265.888 957.562 266.592 957.562 267.616C957.626 268.576 957.658 269.568 957.658 270.592C957.658 271.552 957.658 272.288 957.658 272.8C959.45 270.432 961.722 268.48 964.474 266.944C967.29 265.344 970.202 264.544 973.21 264.544C977.626 264.544 981.338 265.728 984.346 268.096C987.418 270.4 989.722 273.408 991.258 277.12C992.858 280.768 993.658 284.608 993.658 288.64ZM1075.78 246.784C1075.78 247.232 1075.68 247.584 1075.49 247.84C1075.36 248.032 1075.04 248.128 1074.53 248.128C1073.89 248.128 1073.25 248.128 1072.61 248.128C1071.97 248.064 1071.33 248.032 1070.69 248.032C1069.98 248.032 1069.18 248.224 1068.29 248.608C1067.39 248.992 1066.94 249.632 1066.94 250.528V311.104C1066.94 312 1067.39 312.64 1068.29 313.024C1069.18 313.408 1069.98 313.6 1070.69 313.6C1071.39 313.6 1072.06 313.568 1072.7 313.504C1073.41 313.44 1074.08 313.408 1074.72 313.408C1075.3 313.408 1075.58 313.728 1075.58 314.368C1075.58 314.56 1075.58 314.752 1075.58 314.944C1075.58 315.072 1075.58 315.232 1075.58 315.424C1075.58 315.872 1075.36 316.096 1074.91 316.096C1072.67 316.096 1070.4 316.032 1068.1 315.904C1065.86 315.776 1063.58 315.712 1061.28 315.712C1060 315.712 1058.69 315.744 1057.34 315.808C1056.06 315.872 1054.78 315.936 1053.5 316C1052.67 316.064 1051.84 316.128 1051.01 316.192C1050.24 316.256 1049.44 316.288 1048.61 316.288C1048.22 316.288 1048.03 315.968 1048.03 315.328C1048.03 315.072 1048.06 314.72 1048.13 314.272C1048.19 313.76 1048.38 313.504 1048.7 313.504C1049.41 313.504 1050.14 313.536 1050.91 313.6C1051.68 313.6 1052.42 313.6 1053.12 313.6C1053.82 313.6 1054.66 313.408 1055.62 313.024C1056.58 312.64 1057.06 312 1057.06 311.104V280.672H1018.37V311.104C1018.37 312 1018.82 312.64 1019.71 313.024C1020.61 313.408 1021.41 313.6 1022.11 313.6C1022.82 313.6 1023.49 313.568 1024.13 313.504C1024.83 313.44 1025.54 313.408 1026.24 313.408C1026.69 313.408 1026.94 313.568 1027.01 313.888C1027.07 313.952 1027.1 314.144 1027.1 314.464C1027.1 314.72 1027.1 314.912 1027.1 315.04C1027.1 315.232 1027.04 315.52 1026.91 315.904C1026.66 316.032 1026.46 316.096 1026.34 316.096C1024.1 316.096 1021.86 316.032 1019.62 315.904C1017.44 315.776 1015.23 315.712 1012.99 315.712C1011.65 315.712 1010.3 315.744 1008.96 315.808C1007.68 315.872 1006.4 315.936 1005.12 316C1004.29 316.064 1003.49 316.128 1002.72 316.192C1001.95 316.256 1001.15 316.288 1000.32 316.288C999.872 316.288 999.712 316.128 999.84 315.808C999.712 315.424 999.648 315.2 999.648 315.136C999.648 314.88 999.68 314.56 999.744 314.176C999.808 313.728 1000.03 313.504 1000.42 313.504C1001.12 313.504 1001.82 313.536 1002.53 313.6C1003.3 313.6 1004.03 313.6 1004.74 313.6C1005.5 313.6 1006.34 313.408 1007.23 313.024C1008.19 312.64 1008.67 312 1008.67 311.104C1008.67 305.6 1008.67 300.096 1008.67 294.592C1008.74 289.088 1008.77 283.616 1008.77 278.176C1008.77 273.632 1008.74 269.056 1008.67 264.448C1008.67 259.84 1008.67 255.264 1008.67 250.72C1008.67 249.824 1008.19 249.184 1007.23 248.8C1006.34 248.416 1005.5 248.224 1004.74 248.224C1004.03 248.224 1003.3 248.256 1002.53 248.32C1001.82 248.32 1001.12 248.32 1000.42 248.32C999.968 248.32 999.712 248.064 999.648 247.552C999.584 247.04 999.552 246.656 999.552 246.4C999.552 245.824 999.808 245.536 1000.32 245.536C1001.15 245.536 1001.95 245.568 1002.72 245.632C1003.49 245.696 1004.29 245.76 1005.12 245.824C1006.4 245.888 1007.68 245.952 1008.96 246.016C1010.3 246.08 1011.65 246.112 1012.99 246.112C1015.23 246.112 1017.47 246.048 1019.71 245.92C1022.02 245.792 1024.29 245.728 1026.53 245.728C1026.98 245.728 1027.2 245.92 1027.2 246.304C1027.2 246.688 1027.2 247.04 1027.2 247.36C1027.2 248.064 1026.88 248.416 1026.24 248.416C1025.54 248.416 1024.83 248.384 1024.13 248.32C1023.49 248.256 1022.82 248.224 1022.11 248.224C1021.41 248.224 1020.61 248.416 1019.71 248.8C1018.82 249.184 1018.37 249.824 1018.37 250.72V277.504H1057.06V251.488C1057.06 250.208 1056.7 249.344 1056 248.896C1055.3 248.448 1054.34 248.224 1053.12 248.224C1052.42 248.224 1051.68 248.256 1050.91 248.32C1050.14 248.32 1049.41 248.32 1048.7 248.32C1048.32 248.32 1048.1 248.128 1048.03 247.744C1048.03 247.296 1048.03 246.944 1048.03 246.688C1048.03 245.92 1048.29 245.536 1048.8 245.536C1050.34 245.536 1051.9 245.6 1053.5 245.728C1055.17 245.856 1056.8 245.92 1058.4 245.92H1061.28C1063.58 245.92 1065.86 245.856 1068.1 245.728C1070.4 245.6 1072.67 245.536 1074.91 245.536C1075.23 245.536 1075.46 245.664 1075.58 245.92C1075.71 246.176 1075.78 246.464 1075.78 246.784ZM1116.86 282.304C1116.79 279.68 1116.57 277.184 1116.18 274.816C1115.8 272.384 1114.87 270.4 1113.4 268.864C1111.93 267.264 1109.53 266.464 1106.2 266.464C1103.19 266.464 1100.73 267.296 1098.81 268.96C1096.95 270.56 1095.51 272.608 1094.49 275.104C1093.46 277.536 1092.7 280.032 1092.18 282.592C1093.78 282.656 1095.35 282.72 1096.89 282.784C1098.42 282.784 1099.96 282.784 1101.5 282.784C1104.06 282.784 1106.62 282.752 1109.18 282.688C1111.74 282.56 1114.3 282.432 1116.86 282.304ZM1127.9 304.288C1127.9 304.608 1127.83 304.8 1127.7 304.864C1127.51 305.504 1127.03 306.272 1126.26 307.168C1125.56 308.064 1124.76 308.928 1123.86 309.76C1122.97 310.528 1122.23 311.104 1121.66 311.488C1119.54 312.96 1117.14 314.144 1114.46 315.04C1111.83 315.936 1109.21 316.384 1106.58 316.384C1104.41 316.384 1101.98 316.032 1099.29 315.328C1096.66 314.624 1094.42 313.664 1092.57 312.448C1088.98 310.08 1086.36 306.976 1084.7 303.136C1083.03 299.296 1082.2 295.296 1082.2 291.136C1082.2 286.4 1083.13 282.016 1084.98 277.984C1086.84 273.952 1089.82 270.688 1093.91 268.192C1095.77 267.104 1097.85 266.208 1100.15 265.504C1102.46 264.736 1104.66 264.352 1106.78 264.352C1110.55 264.352 1113.88 265.12 1116.76 266.656C1119.64 268.192 1121.88 270.368 1123.48 273.184C1125.14 275.936 1125.98 279.232 1125.98 283.072C1125.98 284.16 1125.72 284.864 1125.21 285.184C1124.76 285.504 1124.06 285.664 1123.1 285.664C1121.82 285.664 1120.54 285.632 1119.26 285.568C1117.98 285.504 1116.7 285.44 1115.42 285.376C1113.62 285.248 1111.83 285.184 1110.04 285.184C1108.31 285.184 1106.55 285.184 1104.76 285.184C1102.58 285.184 1100.41 285.184 1098.23 285.184C1096.06 285.184 1093.88 285.248 1091.7 285.376C1091.64 286.4 1091.58 287.392 1091.51 288.352C1091.45 289.312 1091.42 290.304 1091.42 291.328C1091.42 293.696 1091.7 296.16 1092.28 298.72C1092.86 301.216 1093.78 303.552 1095.06 305.728C1096.34 307.84 1097.98 309.568 1099.96 310.912C1101.94 312.192 1104.34 312.832 1107.16 312.832C1110.04 312.832 1112.79 312.384 1115.42 311.488C1118.04 310.592 1120.44 309.152 1122.62 307.168C1123.19 306.592 1123.7 305.984 1124.15 305.344C1124.66 304.64 1125.21 304.032 1125.78 303.52C1126.1 303.2 1126.46 303.04 1126.84 303.04C1127.16 303.04 1127.42 303.168 1127.61 303.424C1127.8 303.68 1127.9 303.968 1127.9 304.288ZM1160.24 314.752C1160.24 315.072 1160.14 315.392 1159.95 315.712C1159.82 315.968 1159.57 316.096 1159.18 316.096C1157.2 316.096 1155.18 316.064 1153.14 316C1151.09 315.872 1149.04 315.808 1146.99 315.808H1143.63C1142.29 315.808 1140.94 315.872 1139.6 316C1138.26 316.064 1136.91 316.096 1135.57 316.096C1135.31 316.096 1135.12 316 1134.99 315.808C1134.93 315.552 1134.9 315.328 1134.9 315.136C1134.9 314.944 1134.9 314.752 1134.9 314.56C1134.9 314.368 1134.93 314.176 1134.99 313.984C1135.12 313.728 1135.47 313.6 1136.05 313.6C1136.69 313.536 1137.33 313.536 1137.97 313.6C1138.67 313.6 1139.12 313.6 1139.31 313.6C1140.21 313.6 1141.01 313.408 1141.71 313.024C1142.42 312.576 1142.77 311.84 1142.77 310.816C1142.77 305.888 1142.8 300.992 1142.86 296.128C1142.93 291.2 1142.96 286.304 1142.96 281.44C1142.96 276.448 1142.93 271.456 1142.86 266.464C1142.86 261.408 1142.86 256.384 1142.86 251.392C1142.86 250.944 1142.83 250.464 1142.77 249.952C1142.7 249.376 1142.51 248.928 1142.19 248.608C1141.94 248.288 1141.68 248.128 1141.42 248.128C1141.17 248.064 1140.85 248.032 1140.46 248.032C1139.31 248.032 1138.16 248.224 1137.01 248.608C1135.92 248.992 1134.83 249.184 1133.74 249.184C1133.04 249.184 1132.69 248.768 1132.69 247.936C1132.69 247.424 1133.07 247.072 1133.84 246.88C1134.67 246.688 1135.31 246.56 1135.76 246.496C1138 245.984 1140.43 245.408 1143.06 244.768C1145.68 244.128 1148.05 243.392 1150.16 242.56C1150.29 242.56 1150.42 242.528 1150.54 242.464C1150.67 242.4 1150.77 242.368 1150.83 242.368C1151.22 242.368 1151.44 242.496 1151.5 242.752C1151.63 243.008 1151.7 243.296 1151.7 243.616C1151.7 245.408 1151.66 247.2 1151.6 248.992C1151.6 250.72 1151.6 252.48 1151.6 254.272V281.152C1151.6 286.08 1151.63 291.04 1151.7 296.032C1151.76 300.96 1151.79 305.888 1151.79 310.816C1151.79 311.84 1152.21 312.576 1153.04 313.024C1153.94 313.408 1154.8 313.6 1155.63 313.6C1156.34 313.6 1157.01 313.568 1157.65 313.504C1158.29 313.44 1158.93 313.408 1159.57 313.408C1159.89 313.408 1160.08 313.6 1160.14 313.984C1160.21 314.304 1160.24 314.56 1160.24 314.752ZM1208.02 288.544C1208.02 286.368 1207.89 284.096 1207.64 281.728C1207.38 279.296 1206.84 277.024 1206 274.912C1205.17 272.8 1203.92 271.104 1202.26 269.824C1200.6 268.48 1198.32 267.808 1195.44 267.808C1193.72 267.808 1191.86 268.256 1189.88 269.152C1187.96 269.984 1186.26 271.136 1184.79 272.608C1183.38 274.08 1182.58 275.776 1182.39 277.696C1182.26 279.68 1182.2 281.696 1182.2 283.744C1182.2 285.792 1182.2 287.84 1182.2 289.888C1182.2 291.68 1182.2 293.504 1182.2 295.36C1182.26 297.152 1182.32 298.976 1182.39 300.832C1182.58 304.096 1183.64 306.88 1185.56 309.184C1187.48 311.424 1190.2 312.544 1193.72 312.544C1197.04 312.544 1199.67 311.808 1201.59 310.336C1203.51 308.8 1204.92 306.816 1205.81 304.384C1206.77 301.952 1207.38 299.36 1207.64 296.608C1207.89 293.792 1208.02 291.104 1208.02 288.544ZM1217.91 288.64C1217.91 293.632 1217.01 298.144 1215.22 302.176C1213.43 306.208 1210.74 309.408 1207.16 311.776C1203.64 314.08 1199.22 315.232 1193.91 315.232C1191.86 315.232 1189.75 314.72 1187.57 313.696C1185.46 312.608 1183.67 311.36 1182.2 309.952V330.4C1182.2 331.296 1182.55 331.808 1183.25 331.936C1184.02 332.064 1184.72 332.128 1185.36 332.128C1185.94 332.128 1186.52 332.096 1187.09 332.032C1187.67 331.968 1188.24 331.936 1188.82 331.936C1189.65 331.936 1190.07 332.352 1190.07 333.184C1190.07 334.144 1189.59 334.624 1188.63 334.624C1186.64 334.624 1184.66 334.56 1182.68 334.432C1180.69 334.304 1178.71 334.24 1176.72 334.24C1175.06 334.24 1173.4 334.304 1171.73 334.432C1170.13 334.56 1168.5 334.624 1166.84 334.624C1166.39 334.624 1166.1 334.464 1165.97 334.144C1165.91 333.824 1165.88 333.536 1165.88 333.28C1165.88 332.384 1166.32 331.936 1167.22 331.936C1167.73 331.936 1168.24 331.936 1168.76 331.936C1169.27 332 1169.78 332.032 1170.29 332.032C1170.74 332.032 1171.38 331.968 1172.21 331.84C1173.11 331.712 1173.56 331.328 1173.56 330.688C1173.56 324.032 1173.56 317.344 1173.56 310.624C1173.62 303.904 1173.65 297.216 1173.65 290.56C1173.65 287.552 1173.62 284.576 1173.56 281.632C1173.56 278.688 1173.52 275.744 1173.46 272.8C1173.4 271.392 1173.14 270.432 1172.69 269.92C1172.24 269.344 1171.28 269.056 1169.81 269.056C1169.17 269.056 1168.53 269.152 1167.89 269.344C1167.25 269.472 1166.61 269.536 1165.97 269.536C1165.27 269.536 1164.92 269.216 1164.92 268.576C1164.92 268 1165.2 267.616 1165.78 267.424C1165.91 267.36 1166.48 267.232 1167.51 267.04C1168.53 266.848 1169.75 266.624 1171.16 266.368C1172.63 266.048 1174.07 265.76 1175.48 265.504C1176.88 265.248 1178.07 265.024 1179.03 264.832C1179.99 264.64 1180.5 264.544 1180.56 264.544C1181.08 264.544 1181.43 264.864 1181.62 265.504C1181.75 265.888 1181.81 266.592 1181.81 267.616C1181.88 268.576 1181.91 269.568 1181.91 270.592C1181.91 271.552 1181.91 272.288 1181.91 272.8C1183.7 270.432 1185.97 268.48 1188.72 266.944C1191.54 265.344 1194.45 264.544 1197.46 264.544C1201.88 264.544 1205.59 265.728 1208.6 268.096C1211.67 270.4 1213.97 273.408 1215.51 277.12C1217.11 280.768 1217.91 284.608 1217.91 288.64ZM1260.76 282.304C1260.7 279.68 1260.47 277.184 1260.09 274.816C1259.71 272.384 1258.78 270.4 1257.31 268.864C1255.83 267.264 1253.43 266.464 1250.11 266.464C1247.1 266.464 1244.63 267.296 1242.71 268.96C1240.86 270.56 1239.42 272.608 1238.39 275.104C1237.37 277.536 1236.6 280.032 1236.09 282.592C1237.69 282.656 1239.26 282.72 1240.79 282.784C1242.33 282.784 1243.87 282.784 1245.4 282.784C1247.96 282.784 1250.52 282.752 1253.08 282.688C1255.64 282.56 1258.2 282.432 1260.76 282.304ZM1271.8 304.288C1271.8 304.608 1271.74 304.8 1271.61 304.864C1271.42 305.504 1270.94 306.272 1270.17 307.168C1269.47 308.064 1268.67 308.928 1267.77 309.76C1266.87 310.528 1266.14 311.104 1265.56 311.488C1263.45 312.96 1261.05 314.144 1258.36 315.04C1255.74 315.936 1253.11 316.384 1250.49 316.384C1248.31 316.384 1245.88 316.032 1243.19 315.328C1240.57 314.624 1238.33 313.664 1236.47 312.448C1232.89 310.08 1230.27 306.976 1228.6 303.136C1226.94 299.296 1226.11 295.296 1226.11 291.136C1226.11 286.4 1227.03 282.016 1228.89 277.984C1230.75 273.952 1233.72 270.688 1237.82 268.192C1239.67 267.104 1241.75 266.208 1244.06 265.504C1246.36 264.736 1248.57 264.352 1250.68 264.352C1254.46 264.352 1257.79 265.12 1260.67 266.656C1263.55 268.192 1265.79 270.368 1267.39 273.184C1269.05 275.936 1269.88 279.232 1269.88 283.072C1269.88 284.16 1269.63 284.864 1269.11 285.184C1268.67 285.504 1267.96 285.664 1267 285.664C1265.72 285.664 1264.44 285.632 1263.16 285.568C1261.88 285.504 1260.6 285.44 1259.32 285.376C1257.53 285.248 1255.74 285.184 1253.95 285.184C1252.22 285.184 1250.46 285.184 1248.67 285.184C1246.49 285.184 1244.31 285.184 1242.14 285.184C1239.96 285.184 1237.79 285.248 1235.61 285.376C1235.55 286.4 1235.48 287.392 1235.42 288.352C1235.35 289.312 1235.32 290.304 1235.32 291.328C1235.32 293.696 1235.61 296.16 1236.19 298.72C1236.76 301.216 1237.69 303.552 1238.97 305.728C1240.25 307.84 1241.88 309.568 1243.87 310.912C1245.85 312.192 1248.25 312.832 1251.07 312.832C1253.95 312.832 1256.7 312.384 1259.32 311.488C1261.95 310.592 1264.35 309.152 1266.52 307.168C1267.1 306.592 1267.61 305.984 1268.06 305.344C1268.57 304.64 1269.11 304.032 1269.69 303.52C1270.01 303.2 1270.36 303.04 1270.75 303.04C1271.07 303.04 1271.32 303.168 1271.51 303.424C1271.71 303.68 1271.8 303.968 1271.8 304.288ZM1315.67 273.28C1315.67 273.92 1315.41 274.528 1314.9 275.104C1314.45 275.616 1313.87 275.872 1313.17 275.872C1312.21 275.872 1311.51 275.552 1311.06 274.912C1310.67 274.272 1310.32 273.536 1310 272.704C1309.75 271.872 1309.33 271.136 1308.75 270.496C1308.18 269.856 1307.22 269.536 1305.87 269.536C1305.62 269.536 1305.36 269.536 1305.11 269.536C1304.91 269.536 1304.69 269.568 1304.43 269.632C1303.35 269.824 1302.16 270.496 1300.88 271.648C1299.6 272.8 1298.35 274.176 1297.14 275.776C1295.99 277.312 1295.03 278.848 1294.26 280.384C1293.49 281.92 1293.07 283.2 1293.01 284.224C1292.95 285.248 1292.91 286.272 1292.91 287.296C1292.91 288.256 1292.91 289.216 1292.91 290.176C1292.91 293.632 1292.91 297.088 1292.91 300.544C1292.98 304 1293.01 307.424 1293.01 310.816C1293.01 311.776 1293.39 312.48 1294.16 312.928C1294.99 313.312 1295.83 313.504 1296.66 313.504C1297.3 313.504 1297.94 313.472 1298.58 313.408C1299.22 313.344 1299.86 313.312 1300.5 313.312C1300.82 313.312 1301.04 313.472 1301.17 313.792C1301.3 314.048 1301.36 314.304 1301.36 314.56C1301.36 315.584 1300.85 316.096 1299.83 316.096C1297.91 316.096 1295.99 316.064 1294.07 316C1292.15 315.872 1290.23 315.808 1288.31 315.808C1286.32 315.808 1284.31 315.872 1282.26 316C1280.27 316.128 1278.26 316.192 1276.21 316.192C1275.95 316.192 1275.76 316 1275.63 315.616C1275.57 315.232 1275.54 314.912 1275.54 314.656C1275.54 314.016 1275.79 313.664 1276.31 313.6C1277.01 313.472 1277.75 313.44 1278.51 313.504C1279.28 313.568 1279.99 313.6 1280.63 313.6C1281.59 313.6 1282.35 313.408 1282.93 313.024C1283.57 312.576 1283.92 311.84 1283.99 310.816C1284.11 308.768 1284.18 306.688 1284.18 304.576C1284.24 302.464 1284.27 300.352 1284.27 298.24V288.928C1284.21 286.176 1284.18 283.456 1284.18 280.768C1284.24 278.016 1284.15 275.296 1283.89 272.608C1283.83 271.328 1283.47 270.432 1282.83 269.92C1282.19 269.344 1281.23 269.056 1279.95 269.056C1279.44 269.056 1278.9 269.12 1278.32 269.248C1277.81 269.312 1277.27 269.344 1276.69 269.344C1276.18 269.344 1275.92 268.96 1275.92 268.192C1275.92 267.744 1276.15 267.424 1276.59 267.232C1277.23 267.04 1277.91 266.912 1278.61 266.848C1279.31 266.72 1279.99 266.624 1280.63 266.56C1282.35 266.24 1284.08 265.92 1285.81 265.6C1287.54 265.28 1289.27 264.896 1290.99 264.448C1291.57 264.64 1291.99 264.992 1292.24 265.504C1292.37 265.76 1292.47 266.464 1292.53 267.616C1292.59 268.768 1292.63 270.112 1292.63 271.648C1292.63 273.12 1292.63 274.528 1292.63 275.872C1292.63 277.152 1292.63 278.048 1292.63 278.56C1294.03 276.32 1295.63 274.08 1297.43 271.84C1299.22 269.6 1301.27 267.744 1303.57 266.272C1305.87 264.8 1308.47 264.064 1311.35 264.064C1312.88 264.064 1313.87 264.544 1314.32 265.504C1314.77 266.464 1315.06 267.584 1315.19 268.864C1315.31 269.568 1315.41 270.304 1315.47 271.072C1315.6 271.84 1315.67 272.576 1315.67 273.28ZM1384.15 298.048C1384.15 298.432 1384.11 298.816 1384.05 299.2C1383.99 299.584 1383.86 299.936 1383.67 300.256C1382.83 302.24 1381.52 304.192 1379.73 306.112C1378 307.968 1376.21 309.504 1374.35 310.72C1371.47 312.64 1368.4 313.984 1365.14 314.752C1361.94 315.52 1358.64 315.904 1355.25 315.904C1348.4 315.904 1342.48 314.464 1337.49 311.584C1332.56 308.64 1328.79 304.576 1326.16 299.392C1323.54 294.208 1322.23 288.256 1322.23 281.536C1322.23 276.544 1322.96 271.872 1324.43 267.52C1325.91 263.168 1328.05 259.36 1330.87 256.096C1333.68 252.768 1337.14 250.176 1341.23 248.32C1345.33 246.4 1350 245.44 1355.25 245.44C1357.81 245.44 1360.24 245.856 1362.55 246.688C1364.91 247.456 1367.28 248.256 1369.65 249.088C1370.99 249.536 1372.37 249.888 1373.78 250.144C1375.25 250.4 1376.69 250.592 1378.1 250.72C1378.16 252.128 1378.26 253.536 1378.39 254.944C1378.51 256.288 1378.67 257.664 1378.87 259.072C1379.06 260.352 1379.28 261.664 1379.54 263.008C1379.86 264.288 1380.02 265.6 1380.02 266.944C1380.02 267.968 1379.79 268.8 1379.35 269.44C1378.96 270.08 1378.19 270.4 1377.04 270.4C1376.4 270.4 1375.92 270.048 1375.6 269.344C1375.35 268.704 1375.12 268.032 1374.93 267.328C1374.8 266.56 1374.64 265.856 1374.45 265.216C1373.94 263.104 1373.07 260.896 1371.86 258.592C1370.64 256.224 1369.17 254.336 1367.44 252.928C1366.67 252.224 1365.52 251.52 1363.99 250.816C1362.51 250.112 1360.98 249.536 1359.38 249.088C1357.84 248.64 1356.53 248.416 1355.44 248.416C1353.52 248.416 1351.57 248.768 1349.59 249.472C1347.6 250.176 1345.84 251.104 1344.31 252.256C1341.43 254.496 1339.12 257.216 1337.39 260.416C1335.67 263.552 1334.42 266.912 1333.65 270.496C1332.95 274.08 1332.59 277.632 1332.59 281.152C1332.59 284.992 1333.04 288.768 1333.94 292.48C1334.83 296.128 1336.24 299.424 1338.16 302.368C1340.08 305.312 1342.58 307.68 1345.65 309.472C1348.72 311.2 1352.47 312.064 1356.88 312.064C1358.74 312.064 1360.82 311.808 1363.12 311.296C1365.43 310.72 1367.41 310.08 1369.07 309.376C1371.06 308.544 1372.88 307.488 1374.55 306.208C1376.21 304.864 1377.71 303.36 1379.06 301.696C1379.19 301.568 1379.44 301.184 1379.83 300.544C1380.27 299.904 1380.72 299.264 1381.17 298.624C1381.62 297.984 1381.91 297.6 1382.03 297.472C1382.35 297.088 1382.71 296.896 1383.09 296.896C1383.79 296.896 1384.15 297.28 1384.15 298.048ZM1431.34 290.656C1431.34 287.904 1431.12 285.152 1430.67 282.4C1430.29 279.584 1429.52 276.992 1428.37 274.624C1427.28 272.256 1425.68 270.368 1423.57 268.96C1421.45 267.488 1418.7 266.752 1415.31 266.752C1412.11 266.752 1409.49 267.52 1407.44 269.056C1405.45 270.592 1403.89 272.576 1402.73 275.008C1401.65 277.44 1400.88 280.064 1400.43 282.88C1400.05 285.696 1399.85 288.352 1399.85 290.848C1399.85 293.6 1400.05 296.352 1400.43 299.104C1400.88 301.856 1401.68 304.352 1402.83 306.592C1403.98 308.768 1405.61 310.528 1407.73 311.872C1409.9 313.216 1412.69 313.888 1416.08 313.888C1419.41 313.888 1422.06 313.184 1424.05 311.776C1426.09 310.368 1427.63 308.512 1428.65 306.208C1429.74 303.904 1430.45 301.408 1430.77 298.72C1431.15 295.968 1431.34 293.28 1431.34 290.656ZM1441.23 290.944C1441.23 295.744 1440.08 300.064 1437.77 303.904C1435.53 307.744 1432.46 310.784 1428.56 313.024C1424.72 315.264 1420.4 316.384 1415.6 316.384C1410.93 316.384 1406.7 315.264 1402.93 313.024C1399.15 310.72 1396.14 307.68 1393.9 303.904C1391.66 300.064 1390.54 295.808 1390.54 291.136C1390.54 286.336 1391.63 281.92 1393.81 277.888C1395.98 273.792 1398.96 270.496 1402.73 268C1406.57 265.504 1410.99 264.256 1415.98 264.256C1421.36 264.256 1425.93 265.408 1429.71 267.712C1433.49 269.952 1436.33 273.088 1438.25 277.12C1440.24 281.088 1441.23 285.696 1441.23 290.944ZM1533.11 314.752C1533.11 315.648 1532.76 316.096 1532.06 316.096C1530.26 316.096 1528.44 316.032 1526.58 315.904C1524.73 315.776 1522.87 315.712 1521.02 315.712C1519.16 315.712 1517.27 315.776 1515.35 315.904C1513.5 316.032 1511.64 316.096 1509.78 316.096C1509.53 316.096 1509.34 315.936 1509.21 315.616C1509.14 315.296 1509.11 315.04 1509.11 314.848C1509.11 314.272 1509.4 313.92 1509.98 313.792C1510.62 313.664 1511.29 313.632 1511.99 313.696C1512.76 313.76 1513.34 313.792 1513.72 313.792C1514.62 313.792 1515.35 313.568 1515.93 313.12C1516.5 312.672 1516.79 312 1516.79 311.104C1516.79 306.816 1516.82 302.56 1516.89 298.336C1517.02 294.112 1517.08 289.888 1517.08 285.664C1517.08 284.96 1517.08 284.256 1517.08 283.552C1517.08 282.848 1517.05 282.144 1516.98 281.44C1516.92 279.904 1516.82 278.336 1516.7 276.736C1516.63 275.072 1516.38 273.536 1515.93 272.128C1515.48 270.656 1514.71 269.472 1513.62 268.576C1512.54 267.68 1510.97 267.232 1508.92 267.232C1507.45 267.232 1505.82 267.68 1504.02 268.576C1502.3 269.408 1500.63 270.4 1499.03 271.552C1497.43 272.704 1496.09 273.792 1495 274.816C1495.13 275.712 1495.19 276.64 1495.19 277.6C1495.19 278.496 1495.19 279.392 1495.19 280.288C1495.19 282.144 1495.19 284.032 1495.19 285.952C1495.26 287.808 1495.29 289.664 1495.29 291.52C1495.29 294.784 1495.26 298.048 1495.19 301.312C1495.19 304.576 1495.19 307.84 1495.19 311.104C1495.19 312.064 1495.61 312.736 1496.44 313.12C1497.27 313.504 1498.1 313.696 1498.94 313.696C1499.45 313.696 1499.96 313.664 1500.47 313.6C1501.05 313.536 1501.56 313.504 1502.01 313.504C1502.33 313.504 1502.52 313.664 1502.58 313.984C1502.71 314.304 1502.78 314.56 1502.78 314.752C1502.78 315.072 1502.68 315.392 1502.49 315.712C1502.3 315.968 1502.01 316.096 1501.62 316.096C1499.83 316.096 1498.01 316.032 1496.15 315.904C1494.36 315.776 1492.54 315.712 1490.68 315.712C1488.89 315.712 1487.06 315.776 1485.21 315.904C1483.35 316.032 1481.5 316.096 1479.64 316.096C1479.38 316.096 1479.19 315.936 1479.06 315.616C1478.94 315.296 1478.87 315.04 1478.87 314.848C1478.87 314.336 1479.13 313.984 1479.64 313.792C1480.15 313.664 1480.76 313.632 1481.46 313.696C1482.23 313.76 1482.87 313.792 1483.38 313.792C1484.28 313.792 1485.02 313.6 1485.59 313.216C1486.23 312.768 1486.55 312.064 1486.55 311.104V286.624C1486.55 285.28 1486.52 283.616 1486.46 281.632C1486.46 279.648 1486.33 277.696 1486.07 275.776C1485.88 273.792 1485.53 272.224 1485.02 271.072C1484.57 269.92 1483.8 269.024 1482.71 268.384C1481.69 267.744 1480.54 267.424 1479.26 267.424C1477.59 267.424 1475.9 267.84 1474.17 268.672C1472.44 269.504 1470.81 270.528 1469.27 271.744C1467.74 272.96 1466.42 274.176 1465.34 275.392V311.008C1465.34 311.968 1465.69 312.672 1466.39 313.12C1467.1 313.504 1467.86 313.696 1468.7 313.696C1469.21 313.696 1469.72 313.664 1470.23 313.6C1470.74 313.472 1471.22 313.408 1471.67 313.408C1471.93 313.408 1472.09 313.6 1472.15 313.984C1472.22 314.304 1472.25 314.528 1472.25 314.656C1472.25 314.976 1472.15 315.296 1471.96 315.616C1471.83 315.872 1471.58 316 1471.19 316C1469.98 316 1468.76 315.968 1467.54 315.904C1466.33 315.776 1465.11 315.712 1463.9 315.712C1461.46 315.712 1459.03 315.776 1456.6 315.904C1454.17 315.968 1451.74 316 1449.3 316C1449.05 316 1448.86 315.84 1448.73 315.52C1448.6 315.2 1448.54 314.944 1448.54 314.752C1448.54 313.984 1448.86 313.6 1449.5 313.6C1450.2 313.6 1450.87 313.632 1451.51 313.696C1452.15 313.696 1452.79 313.696 1453.43 313.696C1454.33 313.696 1455.1 313.504 1455.74 313.12C1456.38 312.672 1456.7 311.968 1456.7 311.008C1456.7 304.544 1456.66 298.08 1456.6 291.616C1456.6 285.088 1456.6 278.592 1456.6 272.128C1456.6 271.424 1456.54 270.72 1456.41 270.016C1456.28 269.312 1455.86 268.832 1455.16 268.576C1454.71 268.384 1454.23 268.288 1453.72 268.288C1452.89 268.288 1452.06 268.416 1451.22 268.672C1450.39 268.864 1449.53 268.96 1448.63 268.96C1448.06 268.96 1447.77 268.576 1447.77 267.808C1447.77 267.296 1447.96 266.976 1448.34 266.848C1448.66 266.72 1449.02 266.656 1449.4 266.656C1449.85 266.592 1450.26 266.528 1450.65 266.464C1452.12 266.272 1453.59 266.048 1455.06 265.792C1456.6 265.472 1458.07 265.152 1459.48 264.832C1459.99 264.704 1460.54 264.576 1461.11 264.448C1461.69 264.32 1462.26 264.256 1462.84 264.256C1463.61 264.256 1464.12 264.832 1464.38 265.984C1464.7 267.072 1464.86 268.256 1464.86 269.536C1464.92 270.816 1464.95 271.744 1464.95 272.32C1466.3 271.168 1467.8 269.984 1469.46 268.768C1471.13 267.488 1472.89 266.4 1474.74 265.504C1476.6 264.608 1478.46 264.16 1480.31 264.16C1483.58 264.16 1486.33 264.704 1488.57 265.792C1490.81 266.88 1492.73 268.928 1494.33 271.936C1495.74 270.72 1497.34 269.504 1499.13 268.288C1500.92 267.008 1502.78 265.952 1504.7 265.12C1506.68 264.224 1508.63 263.776 1510.55 263.776C1514.78 263.776 1517.98 264.384 1520.15 265.6C1522.39 266.816 1523.9 268.704 1524.66 271.264C1525.5 273.76 1525.91 276.992 1525.91 280.96C1525.91 285.952 1525.88 290.976 1525.82 296.032C1525.75 301.024 1525.72 306.048 1525.72 311.104C1525.72 312.064 1526.14 312.736 1526.97 313.12C1527.86 313.504 1528.73 313.696 1529.56 313.696C1530.07 313.696 1530.55 313.664 1531 313.6C1531.51 313.536 1531.99 313.504 1532.44 313.504C1532.7 313.504 1532.86 313.664 1532.92 313.984C1533.05 314.304 1533.11 314.56 1533.11 314.752ZM1578.8 288.544C1578.8 286.368 1578.67 284.096 1578.42 281.728C1578.16 279.296 1577.62 277.024 1576.78 274.912C1575.95 272.8 1574.7 271.104 1573.04 269.824C1571.38 268.48 1569.1 267.808 1566.22 267.808C1564.5 267.808 1562.64 268.256 1560.66 269.152C1558.74 269.984 1557.04 271.136 1555.57 272.608C1554.16 274.08 1553.36 275.776 1553.17 277.696C1553.04 279.68 1552.98 281.696 1552.98 283.744C1552.98 285.792 1552.98 287.84 1552.98 289.888C1552.98 291.68 1552.98 293.504 1552.98 295.36C1553.04 297.152 1553.1 298.976 1553.17 300.832C1553.36 304.096 1554.42 306.88 1556.34 309.184C1558.26 311.424 1560.98 312.544 1564.5 312.544C1567.82 312.544 1570.45 311.808 1572.37 310.336C1574.29 308.8 1575.7 306.816 1576.59 304.384C1577.55 301.952 1578.16 299.36 1578.42 296.608C1578.67 293.792 1578.8 291.104 1578.8 288.544ZM1588.69 288.64C1588.69 293.632 1587.79 298.144 1586 302.176C1584.21 306.208 1581.52 309.408 1577.94 311.776C1574.42 314.08 1570 315.232 1564.69 315.232C1562.64 315.232 1560.53 314.72 1558.35 313.696C1556.24 312.608 1554.45 311.36 1552.98 309.952V330.4C1552.98 331.296 1553.33 331.808 1554.03 331.936C1554.8 332.064 1555.5 332.128 1556.14 332.128C1556.72 332.128 1557.3 332.096 1557.87 332.032C1558.45 331.968 1559.02 331.936 1559.6 331.936C1560.43 331.936 1560.85 332.352 1560.85 333.184C1560.85 334.144 1560.37 334.624 1559.41 334.624C1557.42 334.624 1555.44 334.56 1553.46 334.432C1551.47 334.304 1549.49 334.24 1547.5 334.24C1545.84 334.24 1544.18 334.304 1542.51 334.432C1540.91 334.56 1539.28 334.624 1537.62 334.624C1537.17 334.624 1536.88 334.464 1536.75 334.144C1536.69 333.824 1536.66 333.536 1536.66 333.28C1536.66 332.384 1537.1 331.936 1538 331.936C1538.51 331.936 1539.02 331.936 1539.54 331.936C1540.05 332 1540.56 332.032 1541.07 332.032C1541.52 332.032 1542.16 331.968 1542.99 331.84C1543.89 331.712 1544.34 331.328 1544.34 330.688C1544.34 324.032 1544.34 317.344 1544.34 310.624C1544.4 303.904 1544.43 297.216 1544.43 290.56C1544.43 287.552 1544.4 284.576 1544.34 281.632C1544.34 278.688 1544.3 275.744 1544.24 272.8C1544.18 271.392 1543.92 270.432 1543.47 269.92C1543.02 269.344 1542.06 269.056 1540.59 269.056C1539.95 269.056 1539.31 269.152 1538.67 269.344C1538.03 269.472 1537.39 269.536 1536.75 269.536C1536.05 269.536 1535.7 269.216 1535.7 268.576C1535.7 268 1535.98 267.616 1536.56 267.424C1536.69 267.36 1537.26 267.232 1538.29 267.04C1539.31 266.848 1540.53 266.624 1541.94 266.368C1543.41 266.048 1544.85 265.76 1546.26 265.504C1547.66 265.248 1548.85 265.024 1549.81 264.832C1550.77 264.64 1551.28 264.544 1551.34 264.544C1551.86 264.544 1552.21 264.864 1552.4 265.504C1552.53 265.888 1552.59 266.592 1552.59 267.616C1552.66 268.576 1552.69 269.568 1552.69 270.592C1552.69 271.552 1552.69 272.288 1552.69 272.8C1554.48 270.432 1556.75 268.48 1559.5 266.944C1562.32 265.344 1565.23 264.544 1568.24 264.544C1572.66 264.544 1576.37 265.728 1579.38 268.096C1582.45 270.4 1584.75 273.408 1586.29 277.12C1587.89 280.768 1588.69 284.608 1588.69 288.64ZM1627.13 304.768C1626.87 301.888 1626.71 299.008 1626.65 296.128C1626.65 293.184 1626.62 290.24 1626.55 287.296H1625.21C1623.22 287.296 1621.02 287.616 1618.58 288.256C1616.22 288.832 1613.94 289.728 1611.77 290.944C1609.59 292.16 1607.8 293.696 1606.39 295.552C1605.05 297.344 1604.38 299.424 1604.38 301.792C1604.38 304.864 1605.24 307.2 1606.97 308.8C1608.7 310.336 1611.03 311.104 1613.98 311.104C1615.38 311.104 1616.92 310.784 1618.58 310.144C1620.25 309.44 1621.85 308.608 1623.38 307.648C1624.92 306.688 1626.17 305.728 1627.13 304.768ZM1643.93 310.912C1643.93 311.168 1643.9 311.36 1643.83 311.488C1643.19 312.896 1642.1 313.984 1640.57 314.752C1639.1 315.456 1637.62 315.808 1636.15 315.808C1633.46 315.808 1631.51 315.04 1630.3 313.504C1629.14 311.904 1628.22 309.952 1627.51 307.648C1625.08 309.888 1622.39 311.776 1619.45 313.312C1616.5 314.784 1613.34 315.52 1609.94 315.52C1607.58 315.52 1605.34 315.072 1603.22 314.176C1601.18 313.216 1599.51 311.84 1598.23 310.048C1596.95 308.256 1596.31 306.08 1596.31 303.52C1596.31 300.832 1596.98 298.528 1598.33 296.608C1599.74 294.624 1601.5 292.96 1603.61 291.616C1605.78 290.208 1608.09 289.088 1610.52 288.256C1613.02 287.36 1615.35 286.688 1617.53 286.24C1619 285.92 1620.5 285.632 1622.04 285.376C1623.58 285.12 1625.08 284.864 1626.55 284.608C1626.55 282.816 1626.46 280.736 1626.26 278.368C1626.14 276 1625.66 274.048 1624.82 272.512C1623.99 271.04 1622.87 269.728 1621.46 268.576C1620.06 267.424 1618.49 266.848 1616.76 266.848C1613.82 266.848 1611.51 267.616 1609.85 269.152C1608.18 270.688 1607 272.864 1606.3 275.68C1606.23 276 1606.17 276.352 1606.1 276.736C1606.1 277.056 1606.07 277.376 1606.01 277.696C1605.94 278.08 1605.69 278.432 1605.24 278.752C1604.86 279.008 1604.44 279.136 1603.99 279.136C1602.78 279.136 1601.66 278.848 1600.63 278.272C1599.67 277.696 1599.19 276.736 1599.19 275.392C1599.19 274.624 1599.32 273.952 1599.58 273.376C1600.41 271.392 1601.75 269.76 1603.61 268.48C1605.46 267.136 1607.51 266.112 1609.75 265.408C1612.06 264.704 1614.2 264.352 1616.18 264.352C1619.64 264.352 1622.78 264.992 1625.59 266.272C1628.41 267.552 1630.65 269.44 1632.31 271.936C1634.04 274.368 1634.9 277.44 1634.9 281.152C1634.9 285.312 1634.87 289.504 1634.81 293.728C1634.81 297.952 1634.94 302.176 1635.19 306.4C1635.26 307.808 1635.54 309.056 1636.06 310.144C1636.57 311.168 1637.62 311.68 1639.22 311.68C1640.06 311.68 1640.92 311.488 1641.82 311.104C1642.78 310.656 1643.38 310.432 1643.64 310.432C1643.83 310.432 1643.93 310.592 1643.93 310.912ZM1703.83 314.56C1703.83 315.392 1703.35 315.808 1702.39 315.808C1700.98 315.808 1699.54 315.776 1698.07 315.712C1696.59 315.584 1695.12 315.52 1693.65 315.52C1691.47 315.52 1689.23 315.584 1686.93 315.712C1684.69 315.776 1682.45 315.808 1680.21 315.808C1679.95 315.808 1679.79 315.616 1679.73 315.232C1679.67 314.784 1679.63 314.432 1679.63 314.176C1679.63 313.664 1679.95 313.408 1680.59 313.408C1681.23 313.408 1681.75 313.408 1682.13 313.408C1682.45 313.408 1682.77 313.44 1683.09 313.504C1683.47 313.504 1683.83 313.504 1684.15 313.504C1686 313.504 1687.03 312.576 1687.22 310.72C1687.41 306.944 1687.47 303.136 1687.41 299.296C1687.41 295.456 1687.41 291.648 1687.41 287.872C1687.41 287.168 1687.41 286.464 1687.41 285.76C1687.41 284.992 1687.41 284.256 1687.41 283.552C1687.35 282.08 1687.25 280.288 1687.12 278.176C1686.99 276 1686.71 274.24 1686.26 272.896C1685.23 269.568 1682.99 267.904 1679.54 267.904C1676.4 267.904 1673.52 268.704 1670.9 270.304C1668.27 271.904 1666 273.92 1664.08 276.352C1664.02 281.024 1663.99 285.664 1663.99 290.272C1663.99 294.88 1663.99 299.488 1663.99 304.096V310.72C1663.99 311.68 1664.4 312.384 1665.23 312.832C1666.07 313.28 1666.9 313.504 1667.73 313.504C1668.24 313.504 1668.72 313.472 1669.17 313.408C1669.68 313.28 1670.16 313.216 1670.61 313.216C1670.87 313.216 1671.03 313.376 1671.09 313.696C1671.15 314.016 1671.19 314.272 1671.19 314.464C1671.19 314.72 1671.09 315.008 1670.9 315.328C1670.77 315.648 1670.51 315.808 1670.13 315.808C1668.72 315.808 1667.31 315.776 1665.91 315.712C1664.56 315.584 1663.19 315.52 1661.78 315.52C1659.6 315.52 1657.43 315.584 1655.25 315.712C1653.07 315.776 1650.87 315.808 1648.63 315.808C1648.31 315.808 1648.11 315.616 1648.05 315.232C1648.05 314.784 1648.05 314.432 1648.05 314.176C1648.05 313.664 1648.34 313.408 1648.91 313.408C1649.49 313.408 1649.94 313.408 1650.26 313.408C1650.58 313.408 1650.9 313.44 1651.22 313.504C1651.54 313.504 1651.86 313.504 1652.18 313.504C1654.03 313.504 1655.06 312.576 1655.25 310.72C1655.31 309.824 1655.35 308.928 1655.35 308.032C1655.35 307.136 1655.35 306.24 1655.35 305.344C1655.35 299.84 1655.35 294.336 1655.35 288.832C1655.35 283.264 1655.31 277.728 1655.25 272.224C1655.25 271.328 1655.06 270.432 1654.67 269.536C1654.29 268.64 1653.55 268.192 1652.47 268.192C1651.63 268.192 1650.83 268.32 1650.07 268.576C1649.3 268.832 1648.5 268.96 1647.67 268.96C1647.22 268.96 1646.99 268.64 1646.99 268C1646.99 267.872 1646.99 267.744 1646.99 267.616C1647.06 267.424 1647.12 267.296 1647.19 267.232C1647.25 267.168 1647.35 267.136 1647.47 267.136C1647.6 267.072 1647.7 267.008 1647.76 266.944C1648.91 266.624 1650.1 266.4 1651.31 266.272C1652.59 266.144 1653.81 265.952 1654.96 265.696C1656.05 265.504 1657.11 265.248 1658.13 264.928C1659.15 264.544 1660.18 264.352 1661.2 264.352C1661.65 264.352 1662 264.576 1662.26 265.024C1662.58 265.6 1662.83 266.432 1663.03 267.52C1663.22 268.544 1663.35 269.6 1663.41 270.688C1663.54 271.776 1663.6 272.672 1663.6 273.376C1665.01 271.968 1666.67 270.592 1668.59 269.248C1670.58 267.84 1672.63 266.688 1674.74 265.792C1676.91 264.832 1679.03 264.352 1681.07 264.352C1686.96 264.352 1690.93 265.664 1692.98 268.288C1695.09 270.848 1696.15 274.912 1696.15 280.48C1696.15 285.472 1696.11 290.464 1696.05 295.456C1696.05 300.448 1696.05 305.44 1696.05 310.432C1696.05 311.648 1696.4 312.48 1697.11 312.928C1697.87 313.312 1698.77 313.504 1699.79 313.504C1700.31 313.504 1700.82 313.472 1701.33 313.408C1701.84 313.28 1702.32 313.216 1702.77 313.216C1703.15 313.216 1703.41 313.376 1703.54 313.696C1703.73 313.952 1703.83 314.24 1703.83 314.56ZM1763.04 265.408C1763.04 266.048 1762.82 266.4 1762.37 266.464C1761.92 266.528 1761.31 266.56 1760.55 266.56C1759.84 266.56 1759.11 266.72 1758.34 267.04C1757.63 267.36 1756.99 268.096 1756.42 269.248C1753.28 275.392 1750.4 281.664 1747.78 288.064C1745.15 294.464 1742.27 300.736 1739.14 306.88C1737.28 310.592 1735.43 314.304 1733.57 318.016C1731.78 321.792 1729.76 325.44 1727.52 328.96C1726.31 330.88 1724.87 332.416 1723.2 333.568C1721.54 334.72 1719.55 335.296 1717.25 335.296C1715.33 335.296 1713.57 334.88 1711.97 334.048C1710.43 333.216 1709.67 331.712 1709.67 329.536C1709.67 328.128 1710.18 326.944 1711.2 325.984C1712.29 325.024 1713.51 324.544 1714.85 324.544C1715.43 324.544 1716 324.64 1716.58 324.832C1716.19 325.6 1716 326.336 1716 327.04C1716 328 1716.35 328.736 1717.06 329.248C1717.83 329.824 1718.63 330.112 1719.46 330.112C1720.74 330.112 1721.89 329.728 1722.91 328.96C1724 328.256 1724.87 327.392 1725.51 326.368C1726.66 324.64 1727.62 322.72 1728.39 320.608C1729.22 318.496 1729.63 316.416 1729.63 314.368C1729.63 313.472 1729.57 312.576 1729.44 311.68C1729.31 310.784 1729.12 309.92 1728.87 309.088C1728.48 307.744 1728.03 306.432 1727.52 305.152C1727.01 303.808 1726.5 302.496 1725.99 301.216C1725.15 299.168 1724.32 297.152 1723.49 295.168C1722.72 293.184 1721.89 291.2 1720.99 289.216C1719.78 286.336 1718.56 283.456 1717.35 280.576C1716.19 277.632 1714.91 274.784 1713.51 272.032C1713.31 271.712 1713.12 271.392 1712.93 271.072C1712.8 270.752 1712.61 270.432 1712.35 270.112C1712.03 269.6 1711.62 269.184 1711.11 268.864C1710.66 268.48 1710.08 268.288 1709.38 268.288C1708.93 268.288 1708.45 268.32 1707.94 268.384C1707.43 268.448 1706.91 268.48 1706.4 268.48C1706.08 268.48 1705.83 268.352 1705.63 268.096C1705.44 267.776 1705.35 267.488 1705.35 267.232C1705.35 266.72 1705.63 266.4 1706.21 266.272C1706.85 266.08 1707.49 265.952 1708.13 265.888C1708.83 265.824 1709.51 265.76 1710.15 265.696C1711.55 265.44 1712.96 265.184 1714.37 264.928C1715.78 264.672 1717.19 264.48 1718.59 264.352C1718.79 264.288 1718.98 264.256 1719.17 264.256C1719.36 264.256 1719.55 264.256 1719.75 264.256C1720.39 264.256 1720.8 264.448 1720.99 264.832C1721.25 265.216 1721.51 265.664 1721.76 266.176C1723.23 269.376 1724.58 272.672 1725.79 276.064C1727.01 279.392 1728.23 282.72 1729.44 286.048C1730.72 289.184 1731.94 292.352 1733.09 295.552C1734.24 298.752 1735.43 301.952 1736.64 305.152C1737.09 304.32 1737.73 302.944 1738.56 301.024C1739.46 299.04 1740.45 296.8 1741.54 294.304C1742.69 291.744 1743.84 289.088 1744.99 286.336C1746.15 283.584 1747.2 280.96 1748.16 278.464C1749.19 275.968 1749.99 273.824 1750.56 272.032C1751.2 270.176 1751.52 268.896 1751.52 268.192C1751.52 267.36 1751.11 266.88 1750.27 266.752C1749.44 266.56 1748.51 266.496 1747.49 266.56C1746.47 266.624 1745.7 266.656 1745.19 266.656C1744.93 266.656 1744.71 266.528 1744.51 266.272C1744.32 266.016 1744.23 265.76 1744.23 265.504C1744.23 264.864 1744.55 264.544 1745.19 264.544C1745.89 264.48 1746.43 264.448 1746.82 264.448C1747.91 264.448 1749.03 264.48 1750.18 264.544C1751.33 264.544 1752.45 264.544 1753.54 264.544C1755.01 264.544 1756.45 264.512 1757.86 264.448C1759.33 264.384 1760.77 264.352 1762.18 264.352C1762.5 264.352 1762.72 264.48 1762.85 264.736C1762.98 264.928 1763.04 265.152 1763.04 265.408Z" fill="#FFFCEC"/>
</svg>
