<svg width="215" height="235" viewBox="0 0 215 235" fill="none" xmlns="http://www.w3.org/2000/svg">
<path d="M7.03632 235C3.15059 235 0 232.076 0 228.469V104.349C0 103.069 0.029553 101.899 0.0919084 100.774C0.575436 90.0593 3.29827 79.5893 8.18168 69.7132C9.21219 67.6257 10.3641 65.5311 11.6025 63.4934C29.9754 33.0265 66.6492 14.0887 107.299 14.0887C114.765 14.0887 122.207 14.7355 129.42 16.0107C137.729 17.487 146.055 19.8537 153.505 22.858C158.337 24.7912 163.144 27.1173 167.772 29.7633C173.2 32.8762 178.297 36.4157 182.932 40.2871C185.116 42.1157 187.231 44.0438 189.227 46.0237C198.254 54.9768 205.018 65.1555 209.33 76.2773C209.384 76.4073 209.469 76.6307 209.555 76.855C211.585 82.219 213.022 87.7332 213.834 93.2586C214.207 95.8599 214.446 98.4642 214.547 101.024C214.562 101.259 214.574 101.495 214.577 101.73C214.612 102.6 214.625 103.48 214.625 104.349V228.469C214.625 232.076 211.474 235 207.589 235H7.03632Z" fill="#FFFCEC"/>
<path d="M208.033 104.095L140.796 198.671L70.9342 185.703L29.1167 111.785C29.1167 110.697 44.3281 94.5218 44.3861 93.4446C45.0381 78.7955 13.4447 72.7147 21.831 61.1471C34.8031 43.252 55.3278 29.9553 78.1379 24.0766C87.7657 21.5951 97.7547 20.3666 107.745 20.3666C114.874 20.3666 121.84 20.9869 128.548 22.1739C136.206 23.5344 143.993 25.7113 151.146 28.5958C155.825 30.4681 160.282 32.6449 164.526 35.0715C169.592 37.9774 174.33 41.265 178.669 44.8887C180.709 46.5975 182.667 48.3824 184.533 50.2324C188.496 54.1617 192.038 58.4057 195.087 62.9229C202.749 74.2742 171.337 91.881 171.337 105.394C171.371 106.209 177.923 120.677 208.033 104.095Z" fill="#567891"/>
<path d="M208.033 104.095V137.64C200.645 141.014 192.8 143.702 184.978 145.944C177.672 148.033 170.284 149.807 162.837 151.299C162.204 151.43 161.582 151.55 160.949 151.669C125.886 158.45 89.4154 158.853 53.7427 155.131C50.4827 154.794 47.2227 154.413 43.9748 153.987C38.2523 153.226 32.5528 152.267 26.9474 150.983C22.2915 149.927 17.7068 148.633 13.215 147.044C11.2798 146.358 9.34457 145.607 7.48047 144.747V104.095C7.48047 103.007 7.50346 101.93 7.56253 100.852C7.87868 93.7451 9.26254 86.8663 11.585 80.3256C15.8416 79.9225 20.2163 81.0109 23.2061 83.8305C21.3649 76.6582 26.6542 68.5712 34.3578 66.7862C42.0735 65.0013 50.8339 69.8342 52.8391 76.9628C53.1443 72.1197 59.3831 69.0829 64.4842 70.1063C69.5974 71.1298 73.4907 74.9393 76.4576 78.9335C81.0423 85.1159 84.2793 92.6475 82.9184 100.048C88.9582 96.326 97.5774 98.3283 102.701 103.085C107.826 107.831 110.089 114.611 111.286 121.239C111.216 116.091 114.123 110.986 118.744 108.135C123.376 105.283 129.568 104.783 134.658 106.851C133.614 104.238 132.981 101.507 132.735 98.7314C132.536 96.5545 132.583 94.3563 132.899 92.1906V92.1795C132.969 91.6028 133.063 91.0362 133.18 90.4707C133.966 86.6064 135.749 82.6557 139.278 80.5012C142.819 78.3355 148.377 78.8036 150.442 82.2313C149.281 73.0132 154.698 63.4245 163.352 58.8636C163.998 58.5154 164.654 58.2108 165.335 57.9275C175.15 53.8571 187.662 56.3598 194.793 63.8153C194.887 63.5108 194.981 63.2163 195.086 62.9229C198.358 67.7447 201.079 72.871 203.154 78.237C203.224 78.4117 203.295 78.5965 203.365 78.7813C203.541 79.2382 203.705 79.695 203.869 80.1529C205.452 84.594 206.613 89.1863 207.305 93.8883C207.551 95.6407 207.74 97.3932 207.857 99.1669C207.904 99.8086 207.939 100.44 207.962 101.083C207.974 101.268 207.985 101.453 207.985 101.638C208.021 102.453 208.033 103.279 208.033 104.095Z" fill="#9DC4A6"/>
<path d="M208.033 104.095V144.812C193.456 147.664 178.751 149.807 163.975 151.354C162.966 151.462 161.958 151.571 160.949 151.669C122.275 155.533 83.0716 155.49 43.9737 153.987C31.7892 153.519 19.6168 152.91 7.47937 152.225L14.4446 143.371L7.47937 134.664V106.076C8.40595 105.315 9.46161 104.694 10.6103 104.259C14.3275 102.845 18.8423 103.454 21.9732 105.783C22.3954 98.1964 29.6188 91.4485 37.7929 91.0241C45.9669 90.6109 53.9647 96.5637 55.2775 104.063C58.0332 99.8727 65.1286 99.8727 69.244 102.953C73.3485 106.044 75.0726 111.094 75.9981 115.927C80.6419 111.236 88.956 110.648 94.9486 113.761C100.941 116.874 104.635 123.034 105.608 129.347C107.847 124.928 114.133 123.382 119.234 124.601C124.336 125.82 128.51 129.107 132.485 132.307C135.675 124.721 146.253 120.683 154.274 124.014C152.503 118.583 151.354 112.586 153.664 107.339C155.963 102.082 162.917 98.2725 168.393 100.787C165.497 95.062 169.765 87.5852 176.285 85.7353C182.793 83.8854 190.24 87.1506 193.793 92.5491C194.121 90.5571 194.871 88.696 195.962 87.0095C197.803 84.1362 200.606 81.7633 203.866 80.153C205.449 84.594 206.61 89.1864 207.302 93.8883C207.548 95.6408 207.736 97.3932 207.853 99.167C207.9 99.8087 207.935 100.44 207.958 101.083C207.971 101.268 207.981 101.454 207.981 101.638C208.021 102.453 208.033 103.279 208.033 104.095Z" fill="#183A4C"/>
<path d="M208.033 163.435V228.216H7.48163V154.902L48.0203 156.621L76.7628 157.852L208.033 163.435Z" fill="#567891"/>
<path opacity="0.44" d="M208.033 163.435L197.534 175.56L208.033 182.924V228.216H7.48163V179.589L22.0815 170.279L7.48163 154.902L48.0203 156.621L76.7628 157.852L208.033 163.435Z" fill="#9DC4A6"/>
<path d="M208.033 168.649V182.896C205.969 183.2 203.893 183.44 201.829 183.647C165.675 187.304 128.947 185.965 93.2158 179.674C82.8025 177.834 72.0959 175.581 61.7056 177.573C57.0847 178.455 52.6991 180.153 48.0902 181.111C39.8703 182.808 31.309 182.058 22.9358 181.143C19.2886 180.751 13.1909 180.664 7.47937 179.815V158.918C15.067 157.905 22.7127 157.274 30.3704 156.926C36.246 156.665 42.1326 156.577 48.0191 156.621C57.612 156.708 67.1928 157.176 76.7617 157.851C77.8294 157.916 78.896 158.003 79.9637 158.079C112.998 160.572 145.786 165.47 178.914 166.852C188.613 167.255 198.452 167.363 208.033 168.649Z" fill="#FEE6D5"/>
<path d="M208.033 163.108V169.464L7.48163 160.757V154.596L41.3953 156.033L48.1264 156.316L62.304 156.926L68.3667 157.176L79.3894 157.644L84.2094 157.852L87.1882 157.982L96.792 158.385L130.014 159.799L135.562 160.039L208.021 163.108H208.033Z" fill="#FCCB74"/>
<path d="M156.235 228.216H45.2645C45.7448 227.66 46.2382 227.106 46.7184 226.551C50.2245 222.534 54.247 218.224 59.7583 217.43C63.4526 216.897 67.2399 218.062 70.9462 217.561C73.7839 217.18 76.3645 215.841 78.803 214.437C84.6195 211.084 90.0838 207.21 96.0174 204.043C101.963 200.876 108.518 198.405 115.355 198.209C125.804 197.904 135.76 203.008 142.983 210.007C148.472 215.318 152.6 221.642 156.235 228.216Z" fill="#30181B"/>
<path d="M208.033 219.454V228.216H124.374C126.918 223.721 131.515 220.183 136.851 218.964C143.431 217.462 150.572 219.225 157.022 217.299C163.847 215.253 168.608 209.484 175.093 206.643C182.269 203.509 191.135 204.434 197.796 208.407C202.263 211.074 205.746 214.992 208.033 219.454Z" fill="#183A4C"/>
<path d="M72.9288 0C72.9288 0 34.9733 6.28269 24.2614 44.4119L22.7596 171.996C22.7596 171.996 135.439 190.2 201.738 172.817L202.626 97.3637C202.626 97.3637 179.294 69.6428 121.619 75.3958L120.931 92.4392L113.193 92.2256L113.262 86.3007L89.6708 80.2733L84.778 53.1635L82.1898 32.9198L72.9288 0Z" fill="url(#paint0_linear_27_263)"/>
<mask id="mask0_27_263" style="mask-type:luminance" maskUnits="userSpaceOnUse" x="22" y="0" width="181" height="181">
<path d="M72.9288 0C72.9288 0 34.9733 6.28269 24.2614 44.4119L22.7596 171.996C22.7596 171.996 135.439 190.2 201.738 172.817L202.626 97.3637C202.626 97.3637 179.294 69.6428 121.619 75.3958L120.931 92.4392L113.193 92.2256L113.262 86.3007L89.6708 80.2733L84.778 53.1635L82.1898 32.9198L72.9288 0Z" fill="white"/>
</mask>
<g mask="url(#mask0_27_263)">
<path d="M110.516 54.144L149.535 200.871L217.595 188.389L218.154 71.3565L190.036 61.9722L110.516 54.144Z" fill="#C5674D"/>
</g>
<mask id="mask1_27_263" style="mask-type:luminance" maskUnits="userSpaceOnUse" x="22" y="0" width="181" height="181">
<path d="M72.9288 0C72.9288 0 34.9733 6.28269 24.2614 44.4119L22.7596 171.996C22.7596 171.996 135.439 190.2 201.738 172.817L202.626 97.3637C202.626 97.3637 179.294 69.6428 121.619 75.3958L120.931 92.4392L113.193 92.2256L113.262 86.3007L89.6708 80.2733L84.778 53.1635L82.1898 32.9198L72.9288 0Z" fill="white"/>
</mask>
<g mask="url(#mask1_27_263)">
<path d="M30.0642 149.118C29.7556 148.982 29.4344 148.899 29.1029 148.89C26.7186 148.825 24.7446 152.248 24.6941 156.535L24.4738 175.249L26.4012 175.303L26.6215 156.589C26.6648 152.897 28.1352 149.853 30.0642 149.118Z" fill="#954738"/>
<path d="M30.0642 149.118C28.1351 149.853 26.6647 152.897 26.6214 156.589L26.4011 175.303L33.1087 175.487L33.329 156.773C33.3723 153.082 31.9745 149.959 30.0642 149.118Z" fill="#161F36"/>
</g>
<mask id="mask2_27_263" style="mask-type:luminance" maskUnits="userSpaceOnUse" x="22" y="0" width="181" height="181">
<path d="M72.9288 0C72.9288 0 34.9733 6.28269 24.2614 44.4119L22.7596 171.996C22.7596 171.996 135.439 190.2 201.738 172.817L202.626 97.3637C202.626 97.3637 179.294 69.6428 121.619 75.3958L120.931 92.4392L113.193 92.2256L113.262 86.3007L89.6708 80.2733L84.778 53.1635L82.1898 32.9198L72.9288 0Z" fill="white"/>
</mask>
<g mask="url(#mask2_27_263)">
<path d="M42.1474 149.963C41.8388 149.827 41.5175 149.745 41.1861 149.736C38.8018 149.67 36.8277 153.093 36.7772 157.381L36.5569 176.095L38.4843 176.148L38.7046 157.434C38.7479 153.742 40.2183 150.699 42.1474 149.963Z" fill="#954738"/>
<path d="M42.1474 149.963C40.2183 150.699 38.7479 153.742 38.7046 157.434L38.4843 176.148L45.1919 176.333L45.4122 157.619C45.4558 153.928 44.058 150.805 42.1474 149.963Z" fill="#161F36"/>
</g>
<mask id="mask3_27_263" style="mask-type:luminance" maskUnits="userSpaceOnUse" x="22" y="0" width="181" height="181">
<path d="M72.9288 0C72.9288 0 34.9733 6.28269 24.2614 44.4119L22.7596 171.996C22.7596 171.996 135.439 190.2 201.738 172.817L202.626 97.3637C202.626 97.3637 179.294 69.6428 121.619 75.3958L120.931 92.4392L113.193 92.2256L113.262 86.3007L89.6708 80.2733L84.778 53.1635L82.1898 32.9198L72.9288 0Z" fill="white"/>
</mask>
<g mask="url(#mask3_27_263)">
<path d="M89.7196 153.821C89.3435 153.666 88.9527 153.572 88.5489 153.561C85.6456 153.481 83.246 157.35 83.1887 162.202L82.9394 183.379L85.2858 183.444L85.5351 162.267C85.5842 158.09 87.3714 154.649 89.7196 153.821Z" fill="#954738"/>
<path d="M89.7196 153.821C87.3717 154.649 85.5845 158.09 85.5351 162.267L85.2858 183.444L93.4529 183.669L93.7022 162.492C93.7513 158.315 92.0462 154.778 89.7196 153.821Z" fill="#161F36"/>
</g>
<mask id="mask4_27_263" style="mask-type:luminance" maskUnits="userSpaceOnUse" x="22" y="0" width="181" height="181">
<path d="M72.9288 0C72.9288 0 34.9733 6.28269 24.2614 44.4119L22.7596 171.996C22.7596 171.996 135.439 190.2 201.738 172.817L202.626 97.3637C202.626 97.3637 179.294 69.6428 121.619 75.3958L120.931 92.4392L113.193 92.2256L113.262 86.3007L89.6708 80.2733L84.778 53.1635L82.1898 32.9198L72.9288 0Z" fill="white"/>
</mask>
<g mask="url(#mask4_27_263)">
<path d="M73.0219 152.759C72.6458 152.604 72.255 152.511 71.8513 152.499C68.948 152.419 66.5483 156.288 66.491 161.141L66.2418 182.318L68.5882 182.382L68.8375 161.205C68.8866 157.028 70.6738 153.587 73.0219 152.759Z" fill="#954738"/>
<path d="M73.0219 152.759C70.6741 153.587 68.8869 157.028 68.8375 161.205L68.5882 182.382L76.7552 182.608L77.0045 161.431C77.054 157.253 75.3489 153.716 73.0219 152.759Z" fill="#161F36"/>
</g>
<mask id="mask5_27_263" style="mask-type:luminance" maskUnits="userSpaceOnUse" x="22" y="0" width="181" height="181">
<path d="M72.9288 0C72.9288 0 34.9733 6.28269 24.2614 44.4119L22.7596 171.996C22.7596 171.996 135.439 190.2 201.738 172.817L202.626 97.3637C202.626 97.3637 179.294 69.6428 121.619 75.3958L120.931 92.4392L113.193 92.2256L113.262 86.3007L89.6708 80.2733L84.778 53.1635L82.1898 32.9198L72.9288 0Z" fill="white"/>
</mask>
<g mask="url(#mask5_27_263)">
<path d="M56.5906 150.869C56.2145 150.714 55.8237 150.62 55.42 150.609C52.5166 150.529 50.117 154.397 50.0597 159.25L49.8104 180.427L52.1569 180.492L52.4061 159.315C52.4553 155.138 54.2425 151.697 56.5906 150.869Z" fill="#954738"/>
<path d="M56.5907 150.869C54.2428 151.697 52.4556 155.138 52.4062 159.315L52.1569 180.492L60.324 180.717L60.5732 159.54C60.6227 155.363 58.9177 151.826 56.5907 150.869Z" fill="#161F36"/>
</g>
<mask id="mask6_27_263" style="mask-type:luminance" maskUnits="userSpaceOnUse" x="22" y="0" width="181" height="181">
<path d="M72.9288 0C72.9288 0 34.9733 6.28269 24.2614 44.4119L22.7596 171.996C22.7596 171.996 135.439 190.2 201.738 172.817L202.626 97.3637C202.626 97.3637 179.294 69.6428 121.619 75.3958L120.931 92.4392L113.193 92.2256L113.262 86.3007L89.6708 80.2733L84.778 53.1635L82.1898 32.9198L72.9288 0Z" fill="white"/>
</mask>
<g mask="url(#mask6_27_263)">
<path d="M194.876 158.099C195.188 157.98 195.511 157.915 195.843 157.924C198.227 157.99 200.119 161.52 200.069 165.808L199.848 184.522L197.921 184.468L198.142 165.754C198.185 162.063 196.787 158.94 194.876 158.099Z" fill="#954738"/>
<path d="M194.876 158.099C196.787 158.94 198.185 162.063 198.141 165.755L197.921 184.469L191.213 184.284L191.434 165.57C191.477 161.878 192.947 158.834 194.876 158.099Z" fill="#5C3031"/>
</g>
<mask id="mask7_27_263" style="mask-type:luminance" maskUnits="userSpaceOnUse" x="22" y="0" width="181" height="181">
<path d="M72.9288 0C72.9288 0 34.9733 6.28269 24.2614 44.4119L22.7596 171.996C22.7596 171.996 135.439 190.2 201.738 172.817L202.626 97.3637C202.626 97.3637 179.294 69.6428 121.619 75.3958L120.931 92.4392L113.193 92.2256L113.262 86.3007L89.6708 80.2733L84.778 53.1635L82.1898 32.9198L72.9288 0Z" fill="white"/>
</mask>
<g mask="url(#mask7_27_263)">
<path d="M147.245 159.33C147.624 159.196 148.017 159.124 148.42 159.135C151.324 159.215 153.631 163.213 153.574 168.066L153.324 189.243L150.978 189.178L151.227 168.001C151.277 163.824 149.572 160.286 147.245 159.33Z" fill="#954738"/>
<path d="M147.245 159.33C149.572 160.287 151.277 163.824 151.227 168.002L150.978 189.179L142.811 188.953L143.06 167.776C143.11 163.599 144.897 160.158 147.245 159.33Z" fill="#161F36"/>
</g>
<mask id="mask8_27_263" style="mask-type:luminance" maskUnits="userSpaceOnUse" x="22" y="0" width="181" height="181">
<path d="M72.9288 0C72.9288 0 34.9733 6.28269 24.2614 44.4119L22.7596 171.996C22.7596 171.996 135.439 190.2 201.738 172.817L202.626 97.3637C202.626 97.3637 179.294 69.6428 121.619 75.3958L120.931 92.4392L113.193 92.2256L113.262 86.3007L89.6708 80.2733L84.778 53.1635L82.1898 32.9198L72.9288 0Z" fill="white"/>
</mask>
<g mask="url(#mask8_27_263)">
<path d="M163.957 159.19C164.336 159.056 164.729 158.983 165.132 158.995C168.036 159.075 170.343 163.073 170.286 167.926L170.036 189.103L167.69 189.039L167.939 167.861C167.988 163.684 166.283 160.147 163.957 159.19Z" fill="#954738"/>
<path d="M163.957 159.19C166.284 160.147 167.989 163.684 167.939 167.861L167.69 189.039L159.523 188.813L159.772 167.636C159.821 163.458 161.608 160.017 163.957 159.19Z" fill="#161F36"/>
</g>
<mask id="mask9_27_263" style="mask-type:luminance" maskUnits="userSpaceOnUse" x="22" y="0" width="181" height="181">
<path d="M72.9288 0C72.9288 0 34.9733 6.28269 24.2614 44.4119L22.7596 171.996C22.7596 171.996 135.439 190.2 201.738 172.817L202.626 97.3637C202.626 97.3637 179.294 69.6428 121.619 75.3958L120.931 92.4392L113.193 92.2256L113.262 86.3007L89.6708 80.2733L84.778 53.1635L82.1898 32.9198L72.9288 0Z" fill="white"/>
</mask>
<g mask="url(#mask9_27_263)">
<path d="M180.422 158.207C180.801 158.073 181.194 158 181.597 158.011C184.501 158.091 186.808 162.091 186.751 166.943L186.501 188.12L184.155 188.055L184.404 166.878C184.454 162.701 182.749 159.164 180.422 158.207Z" fill="#954738"/>
<path d="M180.422 158.207C182.749 159.164 184.454 162.701 184.405 166.879L184.155 188.056L175.988 187.83L176.238 166.653C176.287 162.476 178.073 159.035 180.422 158.207Z" fill="#5C3031"/>
</g>
<path d="M128.815 97.2602L128.711 106.069L134.635 129.272L110.229 128.599L110.183 132.515L104.705 132.364L97.4614 96.3953L128.815 97.2602Z" fill="#D67E64"/>
<path d="M136.675 112.519C137.054 112.385 137.447 112.312 137.851 112.324C140.754 112.404 143.062 116.402 143.004 121.255L142.755 142.432L140.409 142.367L140.658 121.19C140.707 117.013 139.002 113.476 136.675 112.519Z" fill="#954738"/>
<path d="M136.675 112.519C139.002 113.476 140.707 117.013 140.658 121.19L140.409 142.367L132.241 142.142L132.491 120.965C132.54 116.788 134.327 113.347 136.675 112.519Z" fill="#161F36"/>
<path d="M153.026 115.02C153.406 114.886 153.798 114.814 154.202 114.825C157.105 114.905 159.412 118.903 159.355 123.756L159.106 144.933L156.759 144.868L157.009 123.691C157.058 119.514 155.353 115.977 153.026 115.02Z" fill="#954738"/>
<path d="M153.026 115.02C155.353 115.977 157.058 119.514 157.009 123.692L156.76 144.869L148.593 144.643L148.842 123.466C148.891 119.289 150.678 115.848 153.026 115.02Z" fill="#161F36"/>
<path d="M169.1 118.187C169.48 118.054 169.873 117.981 170.276 117.992C173.179 118.072 175.487 122.071 175.429 126.923L175.18 148.1L172.834 148.036L173.083 126.859C173.132 122.682 171.427 119.144 169.1 118.187Z" fill="#954738"/>
<path d="M169.1 118.188C171.427 119.144 173.132 122.682 173.083 126.859L172.834 148.036L164.667 147.811L164.916 126.634C164.965 122.457 166.752 119.016 169.1 118.188Z" fill="#5C3031"/>
<path d="M194.791 123.995C195.089 123.876 195.397 123.811 195.714 123.82C197.992 123.882 199.799 127.397 199.748 131.669L199.529 150.313L197.687 150.262L197.907 131.618C197.95 127.941 196.616 124.831 194.791 123.995Z" fill="#954738"/>
<path d="M194.791 123.994C196.616 124.831 197.95 127.94 197.907 131.618L197.687 150.262L191.277 150.085L191.497 131.441C191.54 127.764 192.947 124.73 194.791 123.994Z" fill="#5C3031"/>
<path d="M183.232 121.69C183.53 121.572 183.838 121.507 184.155 121.516C186.434 121.578 188.241 125.093 188.19 129.365L187.97 148.009L186.129 147.958L186.348 129.314C186.392 125.636 185.058 122.527 183.232 121.69Z" fill="#954738"/>
<path d="M183.232 121.69C185.058 122.527 186.392 125.636 186.349 129.314L186.129 147.958L179.719 147.781L179.938 129.137C179.982 125.46 181.388 122.425 183.232 121.69Z" fill="#5C3031"/>
<path d="M203.64 148.652L141.377 146.935L141.479 138.311L203.741 140.029L203.64 148.652Z" fill="#EA997F"/>
<path d="M141.348 149.445L203.61 151.162L203.64 148.652L141.377 146.935L141.348 149.445Z" fill="#954738"/>
<path d="M203.943 122.849L202.313 123.942C202.313 123.942 182.031 114.365 130.167 111.771L128.711 106.069C128.711 106.069 184.76 105.018 203.943 122.849Z" fill="#954738"/>
<path d="M128.791 99.322C128.791 99.322 170.289 100.53 204.033 115.23L203.943 122.849C203.943 122.849 185.215 110.47 129.46 108.999L128.711 106.069L128.791 99.322Z" fill="#EA997F"/>
<path d="M144.886 88.2159L141.047 88.11L141.123 81.6932L144.962 81.7991L144.886 88.2159Z" fill="#DCEBF6"/>
<path d="M143.394 88.1749L144.886 88.2161L144.962 81.7993L143.469 81.7581L143.394 88.1749Z" fill="#954738"/>
<path d="M160.504 89.5695L157.412 89.4843L157.472 84.3146L160.565 84.4004L160.504 89.5695Z" fill="#DCEBF6"/>
<path d="M159.302 89.5364L160.504 89.5694L160.565 84.4002L159.363 84.3667L159.302 89.5364Z" fill="#954738"/>
<path d="M175.024 93.4004L171.931 93.3147L171.992 88.1455L175.085 88.2308L175.024 93.4004Z" fill="#DCEBF6"/>
<path d="M173.821 93.3669L175.024 93.4005L175.085 88.2308L173.882 88.1978L173.821 93.3669Z" fill="#954738"/>
<path d="M190.09 99.4193L186.997 99.334L187.058 94.1644L190.15 94.2496L190.09 99.4193Z" fill="#DCEBF6"/>
<path d="M188.887 99.3863L190.09 99.4193L190.15 94.2497L188.948 94.2166L188.887 99.3863Z" fill="#954738"/>
<path d="M141.423 143.063L141.348 149.445L148.177 179.927L119.587 180.305L112.505 150.629L112.603 142.268L141.423 143.063Z" fill="#D67E64"/>
<path d="M128.851 94.194L97.4974 93.3286L97.6216 82.7953L128.975 83.6602L128.851 94.194Z" fill="#EA997F"/>
<path d="M97.4614 96.3952L128.815 97.2602L128.851 94.1941L97.4976 93.3286L97.4614 96.3952Z" fill="#954738"/>
<path d="M116.334 88.5801L103.627 88.2295L103.754 77.4324L116.461 77.7834L116.334 88.5801Z" fill="#EA997F"/>
<path d="M89.3963 103.547C89.0201 103.392 88.6294 103.298 88.2256 103.287C85.3223 103.207 82.9226 107.076 82.8654 111.928L82.6161 133.105L84.9625 133.17L85.2118 111.993C85.2613 107.815 87.0485 104.374 89.3963 103.547Z" fill="#954738"/>
<path d="M89.3963 103.547C87.0485 104.375 85.2613 107.816 85.2119 111.993L84.9626 133.17L93.1296 133.396L93.3789 112.218C93.4284 108.041 91.7233 104.504 89.3963 103.547Z" fill="#161F36"/>
<path d="M72.4017 105.747C72.0256 105.593 71.6348 105.499 71.231 105.487C68.3277 105.407 65.9281 109.276 65.8708 114.129L65.6215 135.306L67.968 135.371L68.2172 114.194C68.2667 110.016 70.0539 106.576 72.4017 105.747Z" fill="#954738"/>
<path d="M72.4017 105.748C70.0539 106.576 68.2667 110.017 68.2172 114.194L67.968 135.371L76.135 135.596L76.3843 114.419C76.4337 110.242 74.7287 106.704 72.4017 105.748Z" fill="#161F36"/>
<path d="M55.2096 107.643C54.8334 107.488 54.4426 107.395 54.0389 107.383C51.1356 107.303 48.7356 111.172 48.6787 116.025L48.4294 137.202L50.7758 137.266L51.0251 116.089C51.0746 111.912 52.8614 108.471 55.2096 107.643Z" fill="#954738"/>
<path d="M55.2095 107.643C52.8617 108.471 51.0745 111.912 51.0254 116.089L50.7761 137.266L58.9432 137.491L59.1925 116.314C59.2416 112.137 57.5365 108.6 55.2095 107.643Z" fill="#161F36"/>
<path d="M40.8073 110.727C40.4776 110.574 40.1349 110.481 39.7809 110.471C37.2343 110.401 35.1231 114.278 35.0662 119.13L34.8169 140.308L36.8752 140.365L37.1245 119.187C37.1736 115.01 38.7466 111.563 40.8073 110.727Z" fill="#954738"/>
<path d="M40.8073 110.727C38.7463 111.563 37.1736 115.01 37.1245 119.187L36.8752 140.364L44.0397 140.562L44.289 119.385C44.3381 115.208 42.8475 111.676 40.8073 110.727Z" fill="#161F36"/>
<path d="M28.8824 115.483C28.6242 115.351 28.3555 115.271 28.0783 115.263C26.0827 115.208 24.4244 118.583 24.375 122.802L24.1584 141.211L25.7714 141.256L25.9883 122.847C26.0306 119.215 27.2667 116.215 28.8824 115.483Z" fill="#954738"/>
<path d="M28.8824 115.483C27.2664 116.214 26.0306 119.215 25.9879 122.846L25.7711 141.255L31.385 141.41L31.6016 123.001C31.6445 119.369 30.48 116.303 28.8824 115.483Z" fill="#161F36"/>
<path d="M21.0365 140.09L23.1003 143.029C23.1003 143.029 70.4412 145.188 110.069 142.198L110.099 139.636L61.5884 136.192L21.0365 140.09Z" fill="#954738"/>
<path d="M21.0365 140.091C21.0365 140.091 60.0372 143.195 110.099 139.636L110.183 132.515C110.183 132.515 61.3985 134.015 21.1146 133.445L21.0365 140.091Z" fill="#EA997F"/>
<path d="M21.7765 77.2129L23.8604 78.4581C23.8604 78.4581 49.0851 54.221 85.5296 54.6238L84.7917 51.981L73.8332 49.8263L47.0354 56.3786L26.8759 68.6993L21.7765 77.2129Z" fill="#954738"/>
<path d="M84.625 42.5863C84.625 42.5863 47.2942 44.6208 21.8723 69.073L21.7765 77.2135C21.7765 77.2135 45.0562 52.895 84.7917 51.9816L84.625 42.5863Z" fill="#EA997F"/>
<path d="M79.3629 60.8034C78.9868 60.6492 78.596 60.5548 78.1922 60.5433C75.2889 60.4633 72.8893 64.3322 72.832 69.1848L72.5827 90.362L74.9292 90.4266L75.1784 69.2495C75.2279 65.0722 77.0147 61.631 79.3629 60.8034Z" fill="#954738"/>
<path d="M79.3629 60.8035C77.0151 61.6315 75.2279 65.0727 75.1785 69.2495L74.9292 90.4267L83.0962 90.6523L83.3455 69.4751C83.395 65.2978 81.6899 61.7604 79.3629 60.8035Z" fill="#161F36"/>
<path d="M62.4972 63.5679C62.1211 63.4137 61.7303 63.3194 61.3266 63.3079C58.4232 63.2279 56.0236 67.0967 55.9663 71.9493L55.717 93.1265L58.0635 93.1912L58.3128 72.014C58.3619 67.8367 60.1491 64.3955 62.4972 63.5679Z" fill="#954738"/>
<path d="M62.4972 63.5677C60.1494 64.3958 58.3622 67.837 58.3128 72.0138L58.0635 93.191L66.2305 93.4166L66.4798 72.2394C66.5293 68.0621 64.8239 64.5247 62.4972 63.5677Z" fill="#161F36"/>
<path d="M45.7133 69.5646C45.3835 69.4114 45.0408 69.3184 44.6868 69.3089C42.1399 69.2385 40.0291 73.1155 39.9721 77.968L39.7228 99.1452L41.7811 99.2017L42.0304 78.0246C42.0795 73.8478 43.6522 70.4008 45.7133 69.5646Z" fill="#954738"/>
<path d="M45.7132 69.5646C43.6522 70.4004 42.0795 73.8473 42.0304 78.0246L41.7811 99.2018L48.9456 99.3996L49.1949 78.2224C49.244 74.0451 47.7535 70.5139 45.7132 69.5646Z" fill="#161F36"/>
<path d="M32.3003 79.0683C32.0421 78.9362 31.7734 78.8562 31.4962 78.848C29.5006 78.7929 27.8423 82.168 27.7929 86.3865L27.576 104.796L29.1889 104.84L29.4055 86.431C29.4481 82.7997 30.6842 79.7997 32.3003 79.0683Z" fill="#954738"/>
<path d="M32.3002 79.0684C30.6842 79.7997 29.4484 82.7998 29.4054 86.4311L29.1889 104.84L34.8029 104.995L35.0194 86.5858C35.0624 82.9549 33.8978 79.8888 32.3002 79.0684Z" fill="#161F36"/>
<path d="M20.6263 108.856L22.9983 110.318C22.9983 110.318 51.9012 98.305 95.7823 100.588L95.0358 98.1469L82.3747 94.2953L50.9092 95.2005L26.9233 102.337L20.6263 108.856Z" fill="#954738"/>
<path d="M95.2429 89.9114C95.2429 89.9114 54.5802 86.8386 21.085 101.763L20.6267 108.855C20.6267 108.855 49.1531 95.095 95.0366 98.1463L95.2429 89.9114Z" fill="#EA997F"/>
<path d="M56.2274 32.0145L53.009 32.2789L52.8556 23.5819L56.0736 23.3175L56.2274 32.0145Z" fill="#161F36"/>
<path d="M45.079 39.6801L41.9315 39.9387L41.7811 31.4323L44.9286 31.1737L45.079 39.6801Z" fill="#161F36"/>
<path d="M37.0661 46.7097L33.9187 46.9683L33.7686 38.4619L36.9161 38.2033L37.0661 46.7097Z" fill="#161F36"/>
<path d="M141.459 139.997L110.105 139.132L110.229 128.599L141.583 129.464L141.459 139.997Z" fill="#EA997F"/>
<path d="M110.069 142.198L141.423 143.063L141.459 139.997L110.105 139.132L110.069 142.198Z" fill="#954738"/>
<path d="M120.507 102.148C120.173 102.01 119.826 101.926 119.467 101.917C116.887 101.845 114.755 105.283 114.704 109.596L114.482 128.414L116.568 128.471L116.789 109.653C116.833 105.941 118.421 102.883 120.507 102.148Z" fill="#954738"/>
<path d="M120.507 102.148C118.421 102.883 116.833 105.942 116.789 109.653L116.567 128.471L123.824 128.671L124.046 109.853C124.09 106.142 122.575 102.998 120.507 102.148Z" fill="#161F36"/>
<path d="M102.607 109.262C102.651 105.55 104.239 102.492 106.326 101.757C105.991 101.62 105.644 101.536 105.285 101.526C102.706 101.454 100.573 104.893 100.522 109.205L100.496 111.462L102.466 121.247L102.607 109.262Z" fill="#954738"/>
<path d="M109.864 109.462C109.908 105.75 108.393 102.607 106.325 101.757C104.239 102.492 102.651 105.55 102.607 109.262L102.466 121.247L103.85 128.12L109.642 128.28L109.864 109.462Z" fill="#161F36"/>
<path d="M129.046 153.466C129.383 153.348 129.732 153.283 130.091 153.293C132.67 153.364 134.72 156.917 134.669 161.228L134.438 180.299L132.361 180.305L132.584 161.17C132.628 157.459 131.113 154.317 129.046 153.466Z" fill="#954738"/>
<path d="M129.046 153.467C131.113 154.317 132.628 157.459 132.584 161.17L132.36 180.305L125.107 180.336L125.328 160.97C125.372 157.259 126.96 154.202 129.046 153.467Z" fill="#161F36"/>
<path d="M72.9289 0L81.6143 29.4901L85.0151 32.9978L85.5297 54.6238L90.4289 78.6156L97.6684 78.8154L97.4614 96.3952L104.705 132.364L102.336 132.298L95.0362 98.1467L95.3274 82.7321L87.9518 82.5286L82.6707 54.0366L82.6635 37.7982L79.6671 34.9576L69.5771 0.771564L72.9289 0Z" fill="#954738"/>
<path d="M112.603 142.268L112.505 150.629L119.587 180.305L116.73 180.227L109.474 150.17L110.099 139.636L112.603 142.268Z" fill="#954738"/>
<path d="M110.183 132.515L112.716 132.701L112.505 150.629L109.474 150.17L110.183 132.515Z" fill="#954738"/>
<path d="M102.163 225.743C102.026 226.591 101.868 227.414 101.682 228.237H7.24707V142.669C8.37724 141.404 9.64491 140.371 11.0886 139.708C11.413 139.56 11.7375 139.438 12.0712 139.339C12.6899 139.18 13.3287 139.13 13.9383 139.315C15.6973 139.831 16.7981 142.031 17.3774 144.169C17.6817 145.299 17.898 146.442 18.0263 147.61C18.1052 148.212 18.1537 148.827 18.1831 149.441C18.1831 149.441 18.1831 149.441 18.1831 149.454C18.3893 153.313 17.8787 157.294 17.25 161.129C15.7761 170.051 13.6926 178.813 11.0299 187.292C14.4589 180.336 17.9273 173.319 22.5067 167.506C23.548 166.179 24.6488 164.925 25.8184 163.757C26.1722 163.401 26.526 163.057 26.899 162.726C26.9971 162.627 27.0952 162.541 27.2034 162.442C29.8661 160.034 32.7946 158.129 35.9184 157.035C37.0678 156.616 38.2475 156.31 39.4455 156.137C42.0789 155.744 45.1349 156.211 46.6867 158.902C47.4429 160.217 47.7179 161.876 47.8755 163.498C49.3787 178.822 42.6582 193.262 36.0156 206.338C35.868 206.62 35.7205 206.916 35.5738 207.198C35.7315 206.952 35.8781 206.718 36.055 206.485C41.4492 198.374 49.2504 192.807 57.5833 191.136C60.0984 190.632 62.8501 190.534 65.0114 192.217C67.4872 194.159 68.5981 198.091 68.4899 201.753C68.3818 205.415 67.2516 208.893 66.1517 212.285C70.1215 208.156 74.8576 205.195 79.8879 203.695C83.975 202.479 88.338 202.245 92.3372 203.831C96.3464 205.416 99.9624 208.979 101.564 213.846C102.792 217.57 102.782 221.786 102.163 225.743Z" fill="#9DC4A6"/>
<path d="M206.03 156.965C206.678 157.065 207.307 157.18 207.935 157.315V225.983H142.577C141.61 225.161 140.821 224.24 140.315 223.19C140.202 222.954 140.108 222.718 140.033 222.475C139.911 222.026 139.874 221.561 140.015 221.118C140.409 219.839 142.089 219.038 143.722 218.617C144.586 218.396 145.459 218.238 146.351 218.145C146.811 218.088 147.28 218.053 147.749 218.031C147.749 218.031 147.749 218.031 147.759 218.031C150.706 217.881 153.747 218.253 156.676 218.71C163.491 219.781 170.184 221.296 176.66 223.233C171.348 220.739 165.988 218.217 161.548 214.887C160.534 214.13 159.576 213.33 158.684 212.479C158.412 212.222 158.149 211.965 157.896 211.693C157.821 211.622 157.755 211.551 157.68 211.472C155.84 209.536 154.385 207.406 153.549 205.135C153.23 204.299 152.996 203.441 152.864 202.57C152.564 200.655 152.92 198.433 154.976 197.305C155.98 196.755 157.247 196.555 158.486 196.44C170.191 195.347 181.221 200.234 191.208 205.064C191.423 205.172 191.649 205.279 191.865 205.386C191.677 205.271 191.499 205.164 191.32 205.036C185.125 201.113 180.873 195.441 179.596 189.382C179.212 187.553 179.137 185.552 180.422 183.98C181.905 182.18 184.909 181.372 187.706 181.451C190.503 181.529 193.16 182.351 195.751 183.151C192.597 180.264 190.335 176.821 189.19 173.163C188.261 170.191 188.082 167.018 189.293 164.11C190.504 161.195 193.226 158.566 196.943 157.401C199.788 156.508 203.007 156.516 206.03 156.965Z" fill="#183A4C"/>
<defs>
<linearGradient id="paint0_linear_27_263" x1="22.7593" y1="90.1681" x2="202.626" y2="90.1681" gradientUnits="userSpaceOnUse">
<stop offset="0.0041" stop-color="#E19C6F"/>
<stop offset="0.1718" stop-color="#E0916F"/>
<stop offset="0.5856" stop-color="#DF8C6F"/>
</linearGradient>
</defs>
</svg>
