<svg width="312" height="203" viewBox="0 0 312 203" fill="none" xmlns="http://www.w3.org/2000/svg">
<path opacity="0.4" fill-rule="evenodd" clip-rule="evenodd" d="M119.308 172.92L10.3999 202.148V178.185C10.3999 178.185 28.1919 186.167 39.1101 183.888C50.0283 181.608 53.5067 169.828 67.1569 166.559C79.7175 163.552 94.5707 170.984 116.803 171.435L119.308 172.92Z" fill="#0053A6" fill-opacity="0.4"/>
<path fill-rule="evenodd" clip-rule="evenodd" d="M173.613 143.191L199.127 136.332C219.881 130.751 224.221 144.854 224.221 144.854L177.932 157.244L156.318 191.656L145.401 194.205L152.279 164.111L113.115 174.594L97.1611 154.894C97.1611 154.894 100.198 153.715 104.727 154.226C109.256 154.736 114.955 158.96 114.955 158.96L148.895 149.836L127.907 127.865L139.073 124.8L173.613 143.191Z" fill="#0053A6" fill-opacity="0.3"/>
<path opacity="0.4" fill-rule="evenodd" clip-rule="evenodd" d="M150.677 73.2691L0 114.749V80.7409C0 80.7409 19.8031 94.4682 39.721 88.8341C59.6389 83.2 59.6389 68.8809 78.5241 64.2421C95.9019 59.9737 117.371 74.2652 147.211 71.1616L150.677 73.2691Z" fill="white"/>
<path fill-rule="evenodd" clip-rule="evenodd" d="M168.322 4.57107L201.905 39.7275L240.035 29.316L184.975 0L168.322 4.57107Z" fill="#CBDCEB"/>
<path fill-rule="evenodd" clip-rule="evenodd" d="M122.466 44.8831L146.261 74.2652L311.97 29.9094C311.97 29.9094 305.496 8.87501 274.543 17.1991L149.005 50.9473C149.005 50.9473 140.504 44.6483 133.75 43.8871C126.995 43.1259 122.466 44.8831 122.466 44.8831Z" fill="#4149FB"/>
<path fill-rule="evenodd" clip-rule="evenodd" d="M207.381 51.6995L194.414 108.44L210.696 104.638L251.467 39.7275L207.381 51.6995Z" fill="url(#paint0_linear_27_471)"/>
<defs>
<linearGradient id="paint0_linear_27_471" x1="198.898" y1="33.2155" x2="169.706" y2="87.0398" gradientUnits="userSpaceOnUse">
<stop stop-color="#DBE5E8"/>
<stop offset="1" stop-color="#91D3FF"/>
</linearGradient>
</defs>
</svg>
