<svg width="967" height="94" viewBox="0 0 967 94" fill="none" xmlns="http://www.w3.org/2000/svg">
<path d="M65.472 21.68C65.472 22.576 65.088 23.024 64.32 23.024C64.064 23.024 63.84 23.024 63.648 23.024C63.456 22.96 63.296 22.8 63.168 22.544C63.104 22.416 63.008 22.128 62.88 21.68C62.816 21.168 62.784 20.816 62.784 20.624C62.464 18.704 61.984 16.592 61.344 14.288C60.768 11.92 59.84 10 58.56 8.528C57.92 7.76 56.832 7.248 55.296 6.992C53.76 6.736 52.192 6.608 50.592 6.608C48.992 6.608 47.744 6.608 46.848 6.608C45.888 6.608 44.704 6.608 43.296 6.608C41.952 6.608 40.736 6.864 39.648 7.376C38.624 7.888 38.112 8.91199 38.112 10.448C38.112 20.112 38.144 29.808 38.208 39.536C38.336 49.2 38.4 58.896 38.4 68.624C38.4 69.456 38.752 70.096 39.456 70.544C40.16 70.928 40.96 71.184 41.856 71.312C42.752 71.44 43.488 71.504 44.064 71.504C44.576 71.504 45.024 71.504 45.408 71.504C45.856 71.44 46.304 71.408 46.752 71.408C47.392 71.408 47.712 71.696 47.712 72.272C47.712 72.528 47.712 72.912 47.712 73.424C47.712 73.872 47.488 74.096 47.04 74.096C44.736 74.096 42.432 74.064 40.128 74C37.888 73.872 35.616 73.808 33.312 73.808C30.24 73.808 27.104 73.904 23.904 74.096C23.2 74.096 22.464 74.128 21.696 74.192C20.928 74.256 20.192 74.288 19.488 74.288C18.912 74.288 18.624 73.936 18.624 73.232C18.624 72.464 18.72 71.984 18.912 71.792C19.104 71.6 19.552 71.504 20.256 71.504C20.384 71.504 20.512 71.536 20.64 71.6C20.832 71.6 20.96 71.6 21.024 71.6C21.728 71.6 22.624 71.536 23.712 71.408C24.8 71.28 25.76 71.024 26.592 70.64C27.488 70.192 27.936 69.52 27.936 68.624C28 63.696 28.032 58.768 28.032 53.84C28.096 48.912 28.128 43.984 28.128 39.056C28.128 34.192 28.096 29.36 28.032 24.56C27.968 19.696 27.936 14.832 27.936 9.96799C27.936 9.2 27.616 8.496 26.976 7.856C26.4 7.216 25.76 6.86399 25.056 6.8C24.48 6.672 23.872 6.608 23.232 6.608C22.656 6.608 22.048 6.608 21.408 6.608H12.864C10.56 6.608 8.832 7.184 7.68 8.336C6.592 9.424 5.824 10.864 5.376 12.656C4.928 14.384 4.512 16.176 4.128 18.032C4.128 18.16 4.032 18.608 3.84 19.376C3.712 20.08 3.552 20.784 3.36 21.488C3.232 22.128 3.136 22.48 3.072 22.544C2.816 22.864 2.432 23.024 1.92 23.024C1.216 23.024 0.864 22.672 0.864 21.968C0.864 21.712 0.864 21.392 0.864 21.008C0.928 20.56 0.992 20.048 1.056 19.472C1.184 18 1.28 16.24 1.344 14.192C1.472 12.08 1.568 10.128 1.632 8.336C1.696 7.696 1.728 7.056 1.728 6.41599C1.728 5.776 1.76 5.2 1.824 4.68799C1.824 3.79199 2.368 3.408 3.456 3.536C8.128 3.984 12.832 4.20799 17.568 4.20799C22.368 4.144 27.104 4.112 31.776 4.112H39.936C42.56 4.112 45.184 4.112 47.808 4.112C50.496 4.048 53.184 3.984 55.872 3.92C57.024 3.856 58.208 3.824 59.424 3.824C60.704 3.76 61.952 3.72799 63.168 3.72799C64 3.72799 64.48 4.04799 64.608 4.68799C64.672 4.88 64.736 5.584 64.8 6.8C64.864 7.952 64.928 9.296 64.992 10.832C65.056 12.304 65.088 13.712 65.088 15.056C65.152 16.336 65.184 17.232 65.184 17.744C65.248 18.384 65.312 19.024 65.376 19.664C65.44 20.304 65.472 20.976 65.472 21.68ZM108.041 31.28C108.041 31.92 107.785 32.528 107.273 33.104C106.825 33.616 106.249 33.872 105.545 33.872C104.585 33.872 103.881 33.552 103.433 32.912C103.049 32.272 102.697 31.536 102.377 30.704C102.121 29.872 101.705 29.136 101.129 28.496C100.553 27.856 99.5933 27.536 98.2493 27.536C97.9933 27.536 97.7373 27.536 97.4813 27.536C97.2893 27.536 97.0653 27.568 96.8093 27.632C95.7213 27.824 94.5373 28.496 93.2573 29.648C91.9773 30.8 90.7293 32.176 89.5133 33.776C88.3613 35.312 87.4013 36.848 86.6333 38.384C85.8653 39.92 85.4493 41.2 85.3853 42.224C85.3213 43.248 85.2893 44.272 85.2893 45.296C85.2893 46.256 85.2893 47.216 85.2893 48.176C85.2893 51.632 85.2893 55.088 85.2893 58.544C85.3533 62 85.3853 65.424 85.3853 68.816C85.3853 69.776 85.7693 70.48 86.5373 70.928C87.3693 71.312 88.2013 71.504 89.0333 71.504C89.6733 71.504 90.3133 71.472 90.9532 71.408C91.5933 71.344 92.2333 71.312 92.8733 71.312C93.1933 71.312 93.4173 71.472 93.5453 71.792C93.6733 72.048 93.7373 72.304 93.7373 72.56C93.7373 73.584 93.2253 74.096 92.2013 74.096C90.2813 74.096 88.3613 74.064 86.4413 74C84.5213 73.872 82.6013 73.808 80.6813 73.808C78.6973 73.808 76.6813 73.872 74.6333 74C72.6493 74.128 70.6333 74.192 68.5853 74.192C68.3293 74.192 68.1373 74 68.0093 73.616C67.9453 73.232 67.9133 72.912 67.9133 72.656C67.9133 72.016 68.1693 71.664 68.6813 71.6C69.3853 71.472 70.1213 71.44 70.8893 71.504C71.6573 71.568 72.3613 71.6 73.0013 71.6C73.9613 71.6 74.7293 71.408 75.3053 71.024C75.9453 70.576 76.2973 69.84 76.3613 68.816C76.4893 66.768 76.5533 64.688 76.5533 62.576C76.6173 60.464 76.6493 58.352 76.6493 56.24V46.928C76.5853 44.176 76.5533 41.456 76.5533 38.768C76.6173 36.016 76.5213 33.296 76.2653 30.608C76.2013 29.328 75.8493 28.432 75.2093 27.92C74.5693 27.344 73.6093 27.056 72.3293 27.056C71.8173 27.056 71.2733 27.12 70.6973 27.248C70.1853 27.312 69.6413 27.344 69.0653 27.344C68.5533 27.344 68.2973 26.96 68.2973 26.192C68.2973 25.744 68.5213 25.424 68.9693 25.232C69.6093 25.04 70.2813 24.912 70.9853 24.848C71.6893 24.72 72.3613 24.624 73.0013 24.56C74.7293 24.24 76.4573 23.92 78.1853 23.6C79.9133 23.28 81.6413 22.896 83.3693 22.448C83.9453 22.64 84.3613 22.992 84.6173 23.504C84.7453 23.76 84.8413 24.464 84.9053 25.616C84.9693 26.768 85.0013 28.112 85.0013 29.648C85.0013 31.12 85.0013 32.528 85.0013 33.872C85.0013 35.152 85.0013 36.048 85.0013 36.56C86.4093 34.32 88.0093 32.08 89.8013 29.84C91.5933 27.6 93.6413 25.744 95.9453 24.272C98.2493 22.8 100.841 22.064 103.721 22.064C105.257 22.064 106.249 22.544 106.697 23.504C107.145 24.464 107.433 25.584 107.561 26.864C107.689 27.568 107.785 28.304 107.849 29.072C107.977 29.84 108.041 30.576 108.041 31.28ZM139.37 72.56C139.37 72.88 139.274 73.2 139.082 73.52C138.89 73.776 138.634 73.904 138.314 73.904C136.522 73.904 134.73 73.872 132.938 73.808C131.21 73.68 129.418 73.616 127.562 73.616H124.97C123.05 73.616 121.13 73.68 119.21 73.808C117.354 73.872 115.498 73.904 113.642 73.904C113.386 73.904 113.194 73.744 113.066 73.424C113.002 73.104 112.97 72.848 112.97 72.656C112.97 72.336 113.002 72.112 113.066 71.984C113.13 71.792 113.322 71.664 113.642 71.6C113.962 71.472 114.314 71.44 114.698 71.504C115.146 71.504 115.562 71.504 115.946 71.504C116.394 71.504 116.81 71.536 117.194 71.6C117.578 71.6 117.994 71.6 118.442 71.6C119.338 71.6 120.138 71.408 120.842 71.024C121.61 70.576 121.994 69.84 121.994 68.816V30.416C121.994 29.328 121.802 28.496 121.418 27.92C121.034 27.28 120.234 26.96 119.018 26.96C118.122 26.96 117.194 27.024 116.234 27.152C115.338 27.216 114.442 27.312 113.546 27.44C113.034 27.44 112.778 27.152 112.778 26.576C112.778 25.936 113.034 25.52 113.546 25.328C114.314 25.072 115.114 24.912 115.946 24.848C116.842 24.72 117.674 24.592 118.442 24.464C120.234 24.144 122.026 23.792 123.818 23.408C125.61 23.024 127.37 22.608 129.098 22.16C129.29 22.096 129.546 22.064 129.866 22.064C130.57 22.064 130.922 22.448 130.922 23.216C130.922 30.768 130.89 38.352 130.826 45.968C130.826 53.584 130.826 61.2 130.826 68.816C130.826 69.84 131.274 70.576 132.17 71.024C133.13 71.408 134.026 71.6 134.858 71.6C135.498 71.6 136.138 71.568 136.778 71.504C137.482 71.44 138.154 71.408 138.794 71.408C139.05 71.408 139.21 71.568 139.274 71.888C139.338 72.208 139.37 72.432 139.37 72.56ZM131.594 6.128C131.594 7.728 131.018 9.104 129.866 10.256C128.714 11.344 127.338 11.888 125.738 11.888C124.138 11.888 122.762 11.344 121.609 10.256C120.458 9.104 119.882 7.728 119.882 6.128C119.882 4.528 120.458 3.184 121.609 2.096C122.762 0.943998 124.138 0.367998 125.738 0.367998C127.338 0.367998 128.714 0.943998 129.866 2.096C131.018 3.184 131.594 4.528 131.594 6.128ZM186.77 46.544C186.77 44.368 186.642 42.096 186.386 39.728C186.13 37.296 185.586 35.024 184.754 32.912C183.922 30.8 182.674 29.104 181.01 27.824C179.346 26.48 177.074 25.808 174.194 25.808C172.466 25.808 170.61 26.256 168.626 27.152C166.706 27.984 165.01 29.136 163.538 30.608C162.13 32.08 161.33 33.776 161.138 35.696C161.01 37.68 160.946 39.696 160.946 41.744C160.946 43.792 160.946 45.84 160.946 47.888C160.946 49.68 160.946 51.504 160.946 53.36C161.01 55.152 161.074 56.976 161.138 58.832C161.33 62.096 162.386 64.88 164.306 67.184C166.226 69.424 168.946 70.544 172.466 70.544C175.794 70.544 178.418 69.808 180.338 68.336C182.258 66.8 183.666 64.816 184.562 62.384C185.522 59.952 186.13 57.36 186.386 54.608C186.642 51.792 186.77 49.104 186.77 46.544ZM196.658 46.64C196.658 51.632 195.762 56.144 193.97 60.176C192.178 64.208 189.49 67.408 185.906 69.776C182.386 72.08 177.97 73.232 172.658 73.232C170.61 73.232 168.498 72.72 166.322 71.696C164.21 70.608 162.418 69.36 160.946 67.952V88.4C160.946 89.296 161.298 89.808 162.002 89.936C162.77 90.064 163.474 90.128 164.114 90.128C164.69 90.128 165.266 90.096 165.842 90.032C166.418 89.968 166.994 89.936 167.57 89.936C168.402 89.936 168.818 90.352 168.818 91.184C168.818 92.144 168.338 92.624 167.378 92.624C165.394 92.624 163.41 92.56 161.426 92.432C159.442 92.304 157.458 92.24 155.474 92.24C153.81 92.24 152.146 92.304 150.482 92.432C148.882 92.56 147.25 92.624 145.586 92.624C145.138 92.624 144.85 92.464 144.722 92.144C144.658 91.824 144.626 91.536 144.626 91.28C144.626 90.384 145.074 89.936 145.97 89.936C146.482 89.936 146.994 89.936 147.506 89.936C148.018 90 148.53 90.032 149.042 90.032C149.49 90.032 150.13 89.968 150.962 89.84C151.858 89.712 152.306 89.328 152.306 88.688C152.306 82.032 152.306 75.344 152.306 68.624C152.37 61.904 152.402 55.216 152.402 48.56C152.402 45.552 152.37 42.576 152.306 39.632C152.306 36.688 152.274 33.744 152.21 30.8C152.146 29.392 151.89 28.432 151.442 27.92C150.994 27.344 150.034 27.056 148.562 27.056C147.922 27.056 147.282 27.152 146.642 27.344C146.002 27.472 145.362 27.536 144.722 27.536C144.018 27.536 143.666 27.216 143.666 26.576C143.666 26 143.954 25.616 144.53 25.424C144.658 25.36 145.234 25.232 146.258 25.04C147.282 24.848 148.498 24.624 149.906 24.368C151.378 24.048 152.818 23.76 154.226 23.504C155.634 23.248 156.818 23.024 157.778 22.832C158.738 22.64 159.25 22.544 159.314 22.544C159.826 22.544 160.178 22.864 160.37 23.504C160.498 23.888 160.562 24.592 160.562 25.616C160.626 26.576 160.658 27.568 160.658 28.592C160.658 29.552 160.658 30.288 160.658 30.8C162.45 28.432 164.722 26.48 167.474 24.944C170.29 23.344 173.202 22.544 176.21 22.544C180.626 22.544 184.338 23.728 187.346 26.096C190.418 28.4 192.722 31.408 194.258 35.12C195.858 38.768 196.658 42.608 196.658 46.64ZM278.776 4.784C278.776 5.232 278.68 5.584 278.488 5.84C278.36 6.032 278.04 6.128 277.528 6.128C276.888 6.128 276.248 6.128 275.608 6.128C274.968 6.064 274.328 6.032 273.688 6.032C272.984 6.032 272.184 6.224 271.288 6.608C270.392 6.992 269.944 7.632 269.944 8.528V69.104C269.944 70 270.392 70.64 271.288 71.024C272.184 71.408 272.984 71.6 273.688 71.6C274.392 71.6 275.064 71.568 275.704 71.504C276.408 71.44 277.08 71.408 277.72 71.408C278.296 71.408 278.584 71.728 278.584 72.368C278.584 72.56 278.584 72.752 278.584 72.944C278.584 73.072 278.584 73.232 278.584 73.424C278.584 73.872 278.36 74.096 277.912 74.096C275.672 74.096 273.4 74.032 271.096 73.904C268.856 73.776 266.584 73.712 264.28 73.712C263 73.712 261.688 73.744 260.344 73.808C259.064 73.872 257.784 73.936 256.504 74C255.672 74.064 254.84 74.128 254.008 74.192C253.24 74.256 252.44 74.288 251.608 74.288C251.224 74.288 251.032 73.968 251.032 73.328C251.032 73.072 251.064 72.72 251.128 72.272C251.192 71.76 251.384 71.504 251.704 71.504C252.408 71.504 253.144 71.536 253.912 71.6C254.68 71.6 255.416 71.6 256.12 71.6C256.824 71.6 257.656 71.408 258.616 71.024C259.576 70.64 260.056 70 260.056 69.104V38.672H221.368V69.104C221.368 70 221.816 70.64 222.712 71.024C223.608 71.408 224.408 71.6 225.112 71.6C225.816 71.6 226.488 71.568 227.128 71.504C227.832 71.44 228.536 71.408 229.24 71.408C229.688 71.408 229.944 71.568 230.008 71.888C230.072 71.952 230.104 72.144 230.104 72.464C230.104 72.72 230.104 72.912 230.104 73.04C230.104 73.232 230.04 73.52 229.912 73.904C229.656 74.032 229.464 74.096 229.336 74.096C227.096 74.096 224.856 74.032 222.616 73.904C220.44 73.776 218.232 73.712 215.992 73.712C214.648 73.712 213.304 73.744 211.96 73.808C210.68 73.872 209.4 73.936 208.12 74C207.288 74.064 206.488 74.128 205.72 74.192C204.952 74.256 204.152 74.288 203.32 74.288C202.872 74.288 202.712 74.128 202.84 73.808C202.712 73.424 202.648 73.2 202.648 73.136C202.648 72.88 202.68 72.56 202.744 72.176C202.808 71.728 203.032 71.504 203.416 71.504C204.12 71.504 204.824 71.536 205.528 71.6C206.296 71.6 207.032 71.6 207.736 71.6C208.504 71.6 209.336 71.408 210.232 71.024C211.192 70.64 211.672 70 211.672 69.104C211.672 63.6 211.672 58.096 211.672 52.592C211.736 47.088 211.768 41.616 211.768 36.176C211.768 31.632 211.736 27.056 211.672 22.448C211.672 17.84 211.672 13.264 211.672 8.72C211.672 7.824 211.192 7.184 210.232 6.8C209.336 6.416 208.504 6.224 207.736 6.224C207.032 6.224 206.296 6.256 205.528 6.32C204.824 6.32 204.12 6.32 203.416 6.32C202.968 6.32 202.712 6.064 202.648 5.55199C202.584 5.04 202.552 4.656 202.552 4.4C202.552 3.824 202.808 3.536 203.32 3.536C204.152 3.536 204.952 3.568 205.72 3.632C206.488 3.696 207.288 3.76 208.12 3.824C209.4 3.888 210.68 3.952 211.96 4.016C213.304 4.08 214.648 4.112 215.992 4.112C218.232 4.112 220.472 4.048 222.712 3.92C225.016 3.792 227.288 3.72799 229.528 3.72799C229.976 3.72799 230.2 3.92 230.2 4.304C230.2 4.688 230.2 5.04 230.2 5.36C230.2 6.064 229.88 6.41599 229.24 6.41599C228.536 6.41599 227.832 6.384 227.128 6.32C226.488 6.256 225.816 6.224 225.112 6.224C224.408 6.224 223.608 6.416 222.712 6.8C221.816 7.184 221.368 7.824 221.368 8.72V35.504H260.056V9.488C260.056 8.208 259.704 7.344 259 6.89599C258.296 6.448 257.336 6.224 256.12 6.224C255.416 6.224 254.68 6.256 253.912 6.32C253.144 6.32 252.408 6.32 251.704 6.32C251.32 6.32 251.096 6.128 251.032 5.744C251.032 5.296 251.032 4.94399 251.032 4.68799C251.032 3.92 251.288 3.536 251.8 3.536C253.336 3.536 254.904 3.6 256.504 3.72799C258.168 3.856 259.8 3.92 261.4 3.92H264.28C266.584 3.92 268.856 3.856 271.096 3.72799C273.4 3.6 275.672 3.536 277.912 3.536C278.232 3.536 278.456 3.664 278.584 3.92C278.712 4.176 278.776 4.464 278.776 4.784ZM319.856 40.304C319.792 37.68 319.568 35.184 319.184 32.816C318.8 30.384 317.872 28.4 316.4 26.864C314.928 25.264 312.528 24.464 309.2 24.464C306.192 24.464 303.728 25.296 301.808 26.96C299.952 28.56 298.512 30.608 297.488 33.104C296.464 35.536 295.696 38.032 295.184 40.592C296.784 40.656 298.352 40.72 299.888 40.784C301.424 40.784 302.96 40.784 304.496 40.784C307.056 40.784 309.616 40.752 312.176 40.688C314.736 40.56 317.296 40.432 319.856 40.304ZM330.896 62.288C330.896 62.608 330.832 62.8 330.704 62.864C330.512 63.504 330.032 64.272 329.264 65.168C328.56 66.064 327.76 66.928 326.864 67.76C325.968 68.528 325.232 69.104 324.656 69.488C322.544 70.96 320.144 72.144 317.456 73.04C314.832 73.936 312.208 74.384 309.584 74.384C307.408 74.384 304.976 74.032 302.288 73.328C299.664 72.624 297.424 71.664 295.568 70.448C291.984 68.08 289.36 64.976 287.696 61.136C286.032 57.296 285.2 53.296 285.2 49.136C285.2 44.4 286.128 40.016 287.984 35.984C289.84 31.952 292.816 28.688 296.912 26.192C298.768 25.104 300.848 24.208 303.152 23.504C305.456 22.736 307.664 22.352 309.776 22.352C313.552 22.352 316.88 23.12 319.76 24.656C322.64 26.192 324.88 28.368 326.48 31.184C328.144 33.936 328.976 37.232 328.976 41.072C328.976 42.16 328.72 42.864 328.208 43.184C327.76 43.504 327.056 43.664 326.096 43.664C324.816 43.664 323.536 43.632 322.256 43.568C320.976 43.504 319.696 43.44 318.416 43.376C316.624 43.248 314.832 43.184 313.04 43.184C311.312 43.184 309.552 43.184 307.76 43.184C305.584 43.184 303.408 43.184 301.232 43.184C299.056 43.184 296.88 43.248 294.704 43.376C294.64 44.4 294.576 45.392 294.512 46.352C294.448 47.312 294.416 48.304 294.416 49.328C294.416 51.696 294.704 54.16 295.28 56.72C295.856 59.216 296.784 61.552 298.064 63.728C299.344 65.84 300.976 67.568 302.96 68.912C304.944 70.192 307.344 70.832 310.16 70.832C313.04 70.832 315.792 70.384 318.416 69.488C321.04 68.592 323.44 67.152 325.616 65.168C326.192 64.592 326.704 63.984 327.152 63.344C327.664 62.64 328.208 62.032 328.784 61.52C329.104 61.2 329.456 61.04 329.84 61.04C330.16 61.04 330.416 61.168 330.608 61.424C330.8 61.68 330.896 61.968 330.896 62.288ZM363.24 72.752C363.24 73.072 363.144 73.392 362.952 73.712C362.824 73.968 362.568 74.096 362.184 74.096C360.2 74.096 358.184 74.064 356.136 74C354.088 73.872 352.04 73.808 349.992 73.808H346.632C345.288 73.808 343.944 73.872 342.6 74C341.256 74.064 339.912 74.096 338.568 74.096C338.312 74.096 338.12 74 337.992 73.808C337.928 73.552 337.896 73.328 337.896 73.136C337.896 72.944 337.896 72.752 337.896 72.56C337.896 72.368 337.928 72.176 337.992 71.984C338.12 71.728 338.472 71.6 339.048 71.6C339.688 71.536 340.328 71.536 340.968 71.6C341.672 71.6 342.12 71.6 342.312 71.6C343.208 71.6 344.008 71.408 344.712 71.024C345.416 70.576 345.768 69.84 345.768 68.816C345.768 63.888 345.8 58.992 345.864 54.128C345.928 49.2 345.96 44.304 345.96 39.44C345.96 34.448 345.928 29.456 345.864 24.464C345.864 19.408 345.864 14.384 345.864 9.392C345.864 8.944 345.832 8.464 345.768 7.952C345.704 7.376 345.512 6.928 345.192 6.608C344.936 6.288 344.68 6.128 344.424 6.128C344.168 6.064 343.848 6.032 343.464 6.032C342.312 6.032 341.16 6.224 340.008 6.608C338.92 6.992 337.832 7.184 336.744 7.184C336.04 7.184 335.688 6.768 335.688 5.936C335.688 5.424 336.072 5.072 336.84 4.88C337.672 4.688 338.312 4.56 338.76 4.496C341 3.984 343.432 3.408 346.056 2.768C348.68 2.128 351.048 1.392 353.16 0.559996C353.288 0.559996 353.416 0.527996 353.544 0.463997C353.672 0.399998 353.768 0.367998 353.832 0.367998C354.216 0.367998 354.44 0.495998 354.504 0.751999C354.632 1.008 354.696 1.296 354.696 1.616C354.696 3.408 354.664 5.2 354.6 6.992C354.6 8.72 354.6 10.48 354.6 12.272V39.152C354.6 44.08 354.632 49.04 354.696 54.032C354.76 58.96 354.792 63.888 354.792 68.816C354.792 69.84 355.208 70.576 356.04 71.024C356.936 71.408 357.8 71.6 358.632 71.6C359.336 71.6 360.008 71.568 360.648 71.504C361.288 71.44 361.928 71.408 362.568 71.408C362.888 71.408 363.08 71.6 363.144 71.984C363.208 72.304 363.24 72.56 363.24 72.752ZM411.02 46.544C411.02 44.368 410.892 42.096 410.636 39.728C410.38 37.296 409.836 35.024 409.004 32.912C408.172 30.8 406.924 29.104 405.26 27.824C403.596 26.48 401.324 25.808 398.444 25.808C396.716 25.808 394.86 26.256 392.876 27.152C390.956 27.984 389.26 29.136 387.788 30.608C386.38 32.08 385.58 33.776 385.388 35.696C385.26 37.68 385.196 39.696 385.196 41.744C385.196 43.792 385.196 45.84 385.196 47.888C385.196 49.68 385.196 51.504 385.196 53.36C385.26 55.152 385.324 56.976 385.388 58.832C385.58 62.096 386.636 64.88 388.556 67.184C390.476 69.424 393.196 70.544 396.716 70.544C400.044 70.544 402.668 69.808 404.588 68.336C406.508 66.8 407.916 64.816 408.812 62.384C409.772 59.952 410.38 57.36 410.636 54.608C410.892 51.792 411.02 49.104 411.02 46.544ZM420.908 46.64C420.908 51.632 420.012 56.144 418.22 60.176C416.428 64.208 413.74 67.408 410.156 69.776C406.636 72.08 402.22 73.232 396.908 73.232C394.86 73.232 392.748 72.72 390.572 71.696C388.46 70.608 386.668 69.36 385.196 67.952V88.4C385.196 89.296 385.548 89.808 386.252 89.936C387.02 90.064 387.724 90.128 388.364 90.128C388.94 90.128 389.516 90.096 390.092 90.032C390.668 89.968 391.244 89.936 391.82 89.936C392.652 89.936 393.068 90.352 393.068 91.184C393.068 92.144 392.588 92.624 391.628 92.624C389.644 92.624 387.66 92.56 385.676 92.432C383.692 92.304 381.708 92.24 379.724 92.24C378.06 92.24 376.396 92.304 374.732 92.432C373.132 92.56 371.5 92.624 369.836 92.624C369.388 92.624 369.1 92.464 368.972 92.144C368.908 91.824 368.876 91.536 368.876 91.28C368.876 90.384 369.324 89.936 370.22 89.936C370.732 89.936 371.244 89.936 371.756 89.936C372.268 90 372.78 90.032 373.292 90.032C373.74 90.032 374.38 89.968 375.212 89.84C376.108 89.712 376.556 89.328 376.556 88.688C376.556 82.032 376.556 75.344 376.556 68.624C376.62 61.904 376.652 55.216 376.652 48.56C376.652 45.552 376.62 42.576 376.556 39.632C376.556 36.688 376.524 33.744 376.46 30.8C376.396 29.392 376.14 28.432 375.692 27.92C375.244 27.344 374.284 27.056 372.812 27.056C372.172 27.056 371.532 27.152 370.892 27.344C370.252 27.472 369.612 27.536 368.972 27.536C368.268 27.536 367.916 27.216 367.916 26.576C367.916 26 368.204 25.616 368.78 25.424C368.908 25.36 369.484 25.232 370.508 25.04C371.532 24.848 372.748 24.624 374.156 24.368C375.628 24.048 377.068 23.76 378.476 23.504C379.884 23.248 381.068 23.024 382.028 22.832C382.988 22.64 383.5 22.544 383.564 22.544C384.076 22.544 384.428 22.864 384.62 23.504C384.748 23.888 384.812 24.592 384.812 25.616C384.876 26.576 384.908 27.568 384.908 28.592C384.908 29.552 384.908 30.288 384.908 30.8C386.7 28.432 388.972 26.48 391.724 24.944C394.54 23.344 397.452 22.544 400.46 22.544C404.876 22.544 408.588 23.728 411.596 26.096C414.668 28.4 416.972 31.408 418.508 35.12C420.108 38.768 420.908 42.608 420.908 46.64ZM463.762 40.304C463.698 37.68 463.474 35.184 463.09 32.816C462.706 30.384 461.778 28.4 460.306 26.864C458.834 25.264 456.434 24.464 453.106 24.464C450.098 24.464 447.634 25.296 445.714 26.96C443.858 28.56 442.418 30.608 441.394 33.104C440.37 35.536 439.602 38.032 439.09 40.592C440.69 40.656 442.258 40.72 443.794 40.784C445.33 40.784 446.866 40.784 448.402 40.784C450.962 40.784 453.522 40.752 456.082 40.688C458.642 40.56 461.202 40.432 463.762 40.304ZM474.802 62.288C474.802 62.608 474.738 62.8 474.61 62.864C474.418 63.504 473.938 64.272 473.17 65.168C472.466 66.064 471.666 66.928 470.77 67.76C469.874 68.528 469.138 69.104 468.562 69.488C466.45 70.96 464.05 72.144 461.362 73.04C458.738 73.936 456.114 74.384 453.49 74.384C451.314 74.384 448.882 74.032 446.194 73.328C443.57 72.624 441.33 71.664 439.474 70.448C435.89 68.08 433.266 64.976 431.602 61.136C429.938 57.296 429.106 53.296 429.106 49.136C429.106 44.4 430.034 40.016 431.89 35.984C433.746 31.952 436.722 28.688 440.818 26.192C442.674 25.104 444.754 24.208 447.058 23.504C449.362 22.736 451.57 22.352 453.682 22.352C457.458 22.352 460.786 23.12 463.666 24.656C466.546 26.192 468.786 28.368 470.386 31.184C472.05 33.936 472.882 37.232 472.882 41.072C472.882 42.16 472.626 42.864 472.114 43.184C471.666 43.504 470.962 43.664 470.002 43.664C468.722 43.664 467.442 43.632 466.162 43.568C464.882 43.504 463.602 43.44 462.322 43.376C460.53 43.248 458.738 43.184 456.946 43.184C455.218 43.184 453.458 43.184 451.666 43.184C449.49 43.184 447.314 43.184 445.138 43.184C442.962 43.184 440.786 43.248 438.61 43.376C438.546 44.4 438.482 45.392 438.418 46.352C438.354 47.312 438.322 48.304 438.322 49.328C438.322 51.696 438.61 54.16 439.186 56.72C439.762 59.216 440.69 61.552 441.97 63.728C443.25 65.84 444.882 67.568 446.866 68.912C448.85 70.192 451.25 70.832 454.066 70.832C456.946 70.832 459.698 70.384 462.322 69.488C464.946 68.592 467.346 67.152 469.522 65.168C470.098 64.592 470.61 63.984 471.058 63.344C471.57 62.64 472.114 62.032 472.69 61.52C473.01 61.2 473.362 61.04 473.746 61.04C474.066 61.04 474.322 61.168 474.514 61.424C474.706 61.68 474.802 61.968 474.802 62.288ZM518.666 31.28C518.666 31.92 518.41 32.528 517.898 33.104C517.45 33.616 516.874 33.872 516.17 33.872C515.21 33.872 514.506 33.552 514.058 32.912C513.674 32.272 513.322 31.536 513.002 30.704C512.746 29.872 512.33 29.136 511.754 28.496C511.178 27.856 510.218 27.536 508.874 27.536C508.618 27.536 508.362 27.536 508.106 27.536C507.914 27.536 507.69 27.568 507.434 27.632C506.346 27.824 505.162 28.496 503.882 29.648C502.602 30.8 501.354 32.176 500.138 33.776C498.986 35.312 498.026 36.848 497.258 38.384C496.49 39.92 496.074 41.2 496.01 42.224C495.946 43.248 495.914 44.272 495.914 45.296C495.914 46.256 495.914 47.216 495.914 48.176C495.914 51.632 495.914 55.088 495.914 58.544C495.978 62 496.01 65.424 496.01 68.816C496.01 69.776 496.394 70.48 497.162 70.928C497.994 71.312 498.826 71.504 499.658 71.504C500.298 71.504 500.938 71.472 501.578 71.408C502.218 71.344 502.858 71.312 503.498 71.312C503.818 71.312 504.042 71.472 504.17 71.792C504.298 72.048 504.362 72.304 504.362 72.56C504.362 73.584 503.85 74.096 502.826 74.096C500.906 74.096 498.986 74.064 497.066 74C495.146 73.872 493.226 73.808 491.306 73.808C489.322 73.808 487.306 73.872 485.258 74C483.274 74.128 481.258 74.192 479.21 74.192C478.954 74.192 478.762 74 478.634 73.616C478.57 73.232 478.538 72.912 478.538 72.656C478.538 72.016 478.794 71.664 479.306 71.6C480.01 71.472 480.746 71.44 481.514 71.504C482.282 71.568 482.986 71.6 483.626 71.6C484.586 71.6 485.354 71.408 485.93 71.024C486.57 70.576 486.922 69.84 486.986 68.816C487.114 66.768 487.178 64.688 487.178 62.576C487.242 60.464 487.274 58.352 487.274 56.24V46.928C487.21 44.176 487.178 41.456 487.178 38.768C487.242 36.016 487.146 33.296 486.89 30.608C486.826 29.328 486.474 28.432 485.834 27.92C485.194 27.344 484.234 27.056 482.954 27.056C482.442 27.056 481.898 27.12 481.322 27.248C480.81 27.312 480.266 27.344 479.69 27.344C479.178 27.344 478.922 26.96 478.922 26.192C478.922 25.744 479.146 25.424 479.594 25.232C480.234 25.04 480.906 24.912 481.61 24.848C482.314 24.72 482.986 24.624 483.626 24.56C485.354 24.24 487.082 23.92 488.81 23.6C490.538 23.28 492.266 22.896 493.994 22.448C494.57 22.64 494.986 22.992 495.242 23.504C495.37 23.76 495.466 24.464 495.53 25.616C495.594 26.768 495.626 28.112 495.626 29.648C495.626 31.12 495.626 32.528 495.626 33.872C495.626 35.152 495.626 36.048 495.626 36.56C497.034 34.32 498.634 32.08 500.426 29.84C502.218 27.6 504.266 25.744 506.57 24.272C508.874 22.8 511.466 22.064 514.346 22.064C515.882 22.064 516.874 22.544 517.322 23.504C517.77 24.464 518.058 25.584 518.186 26.864C518.314 27.568 518.41 28.304 518.474 29.072C518.602 29.84 518.666 30.576 518.666 31.28ZM587.147 56.048C587.147 56.432 587.115 56.816 587.051 57.2C586.987 57.584 586.859 57.936 586.667 58.256C585.835 60.24 584.523 62.192 582.731 64.112C581.003 65.968 579.211 67.504 577.355 68.72C574.475 70.64 571.403 71.984 568.139 72.752C564.939 73.52 561.643 73.904 558.251 73.904C551.403 73.904 545.483 72.464 540.491 69.584C535.563 66.64 531.787 62.576 529.163 57.392C526.539 52.208 525.227 46.256 525.227 39.536C525.227 34.544 525.963 29.872 527.435 25.52C528.907 21.168 531.051 17.36 533.867 14.096C536.683 10.768 540.139 8.17599 544.234 6.32C548.331 4.4 553.003 3.44 558.251 3.44C560.811 3.44 563.243 3.856 565.547 4.68799C567.915 5.456 570.283 6.256 572.651 7.088C573.995 7.536 575.371 7.88799 576.779 8.144C578.251 8.4 579.691 8.592 581.099 8.72C581.163 10.128 581.259 11.536 581.387 12.944C581.515 14.288 581.675 15.664 581.867 17.072C582.059 18.352 582.283 19.664 582.539 21.008C582.859 22.288 583.019 23.6 583.019 24.944C583.019 25.968 582.795 26.8 582.347 27.44C581.963 28.08 581.195 28.4 580.043 28.4C579.403 28.4 578.923 28.048 578.603 27.344C578.347 26.704 578.123 26.032 577.931 25.328C577.803 24.56 577.643 23.856 577.451 23.216C576.939 21.104 576.075 18.896 574.859 16.592C573.643 14.224 572.171 12.336 570.443 10.928C569.675 10.224 568.523 9.52 566.987 8.816C565.515 8.112 563.979 7.536 562.379 7.088C560.843 6.64 559.531 6.41599 558.443 6.41599C556.523 6.41599 554.571 6.768 552.587 7.472C550.603 8.176 548.843 9.104 547.307 10.256C544.427 12.496 542.123 15.216 540.395 18.416C538.667 21.552 537.419 24.912 536.651 28.496C535.947 32.08 535.595 35.632 535.595 39.152C535.595 42.992 536.043 46.768 536.939 50.48C537.835 54.128 539.243 57.424 541.163 60.368C543.083 63.312 545.579 65.68 548.651 67.472C551.723 69.2 555.467 70.064 559.883 70.064C561.739 70.064 563.819 69.808 566.123 69.296C568.427 68.72 570.411 68.08 572.075 67.376C574.059 66.544 575.883 65.488 577.547 64.208C579.211 62.864 580.715 61.36 582.059 59.696C582.187 59.568 582.443 59.184 582.827 58.544C583.275 57.904 583.723 57.264 584.171 56.624C584.619 55.984 584.907 55.6 585.035 55.472C585.355 55.088 585.707 54.896 586.091 54.896C586.795 54.896 587.147 55.28 587.147 56.048ZM634.341 48.656C634.341 45.904 634.117 43.152 633.669 40.4C633.285 37.584 632.517 34.992 631.365 32.624C630.277 30.256 628.677 28.368 626.565 26.96C624.453 25.488 621.701 24.752 618.309 24.752C615.109 24.752 612.485 25.52 610.437 27.056C608.453 28.592 606.885 30.576 605.733 33.008C604.645 35.44 603.877 38.064 603.429 40.88C603.045 43.696 602.853 46.352 602.853 48.848C602.853 51.6 603.045 54.352 603.429 57.104C603.877 59.856 604.677 62.352 605.829 64.592C606.981 66.768 608.613 68.528 610.725 69.872C612.901 71.216 615.685 71.888 619.077 71.888C622.405 71.888 625.061 71.184 627.045 69.776C629.093 68.368 630.629 66.512 631.653 64.208C632.741 61.904 633.445 59.408 633.765 56.72C634.149 53.968 634.341 51.28 634.341 48.656ZM644.229 48.944C644.229 53.744 643.077 58.064 640.773 61.904C638.533 65.744 635.461 68.784 631.557 71.024C627.717 73.264 623.397 74.384 618.597 74.384C613.925 74.384 609.701 73.264 605.925 71.024C602.149 68.72 599.141 65.68 596.901 61.904C594.661 58.064 593.541 53.808 593.541 49.136C593.541 44.336 594.629 39.92 596.805 35.888C598.981 31.792 601.957 28.496 605.733 26C609.573 23.504 613.989 22.256 618.981 22.256C624.357 22.256 628.933 23.408 632.709 25.712C636.485 27.952 639.333 31.088 641.253 35.12C643.237 39.088 644.229 43.696 644.229 48.944ZM736.112 72.752C736.112 73.648 735.76 74.096 735.056 74.096C733.264 74.096 731.44 74.032 729.584 73.904C727.728 73.776 725.872 73.712 724.016 73.712C722.16 73.712 720.272 73.776 718.352 73.904C716.496 74.032 714.64 74.096 712.784 74.096C712.528 74.096 712.336 73.936 712.208 73.616C712.144 73.296 712.112 73.04 712.112 72.848C712.112 72.272 712.4 71.92 712.976 71.792C713.616 71.664 714.288 71.632 714.992 71.696C715.76 71.76 716.336 71.792 716.72 71.792C717.616 71.792 718.352 71.568 718.928 71.12C719.504 70.672 719.792 70 719.792 69.104C719.792 64.816 719.824 60.56 719.888 56.336C720.016 52.112 720.08 47.888 720.08 43.664C720.08 42.96 720.08 42.256 720.08 41.552C720.08 40.848 720.048 40.144 719.984 39.44C719.92 37.904 719.824 36.336 719.696 34.736C719.632 33.072 719.376 31.536 718.928 30.128C718.48 28.656 717.712 27.472 716.624 26.576C715.536 25.68 713.968 25.232 711.92 25.232C710.448 25.232 708.816 25.68 707.024 26.576C705.296 27.408 703.632 28.4 702.032 29.552C700.432 30.704 699.088 31.792 698 32.816C698.128 33.712 698.192 34.64 698.192 35.6C698.192 36.496 698.192 37.392 698.192 38.288C698.192 40.144 698.192 42.032 698.192 43.952C698.256 45.808 698.288 47.664 698.288 49.52C698.288 52.784 698.256 56.048 698.192 59.312C698.192 62.576 698.192 65.84 698.192 69.104C698.192 70.064 698.608 70.736 699.44 71.12C700.272 71.504 701.104 71.696 701.936 71.696C702.448 71.696 702.96 71.664 703.472 71.6C704.048 71.536 704.56 71.504 705.008 71.504C705.328 71.504 705.52 71.664 705.584 71.984C705.712 72.304 705.776 72.56 705.776 72.752C705.776 73.072 705.68 73.392 705.488 73.712C705.296 73.968 705.008 74.096 704.624 74.096C702.832 74.096 701.008 74.032 699.152 73.904C697.36 73.776 695.536 73.712 693.68 73.712C691.888 73.712 690.064 73.776 688.208 73.904C686.352 74.032 684.496 74.096 682.64 74.096C682.384 74.096 682.192 73.936 682.064 73.616C681.936 73.296 681.872 73.04 681.872 72.848C681.872 72.336 682.128 71.984 682.64 71.792C683.152 71.664 683.76 71.632 684.464 71.696C685.232 71.76 685.872 71.792 686.384 71.792C687.28 71.792 688.016 71.6 688.592 71.216C689.232 70.768 689.552 70.064 689.552 69.104V44.624C689.552 43.28 689.52 41.616 689.456 39.632C689.456 37.648 689.328 35.696 689.072 33.776C688.88 31.792 688.528 30.224 688.016 29.072C687.568 27.92 686.8 27.024 685.712 26.384C684.688 25.744 683.536 25.424 682.256 25.424C680.592 25.424 678.896 25.84 677.168 26.672C675.44 27.504 673.808 28.528 672.272 29.744C670.736 30.96 669.424 32.176 668.336 33.392V69.008C668.336 69.968 668.688 70.672 669.392 71.12C670.096 71.504 670.864 71.696 671.696 71.696C672.208 71.696 672.72 71.664 673.232 71.6C673.744 71.472 674.224 71.408 674.672 71.408C674.928 71.408 675.088 71.6 675.152 71.984C675.216 72.304 675.248 72.528 675.248 72.656C675.248 72.976 675.152 73.296 674.96 73.616C674.832 73.872 674.576 74 674.192 74C672.976 74 671.76 73.968 670.544 73.904C669.328 73.776 668.112 73.712 666.896 73.712C664.464 73.712 662.032 73.776 659.6 73.904C657.168 73.968 654.736 74 652.304 74C652.048 74 651.856 73.84 651.728 73.52C651.6 73.2 651.536 72.944 651.536 72.752C651.536 71.984 651.856 71.6 652.496 71.6C653.2 71.6 653.872 71.632 654.512 71.696C655.152 71.696 655.792 71.696 656.432 71.696C657.328 71.696 658.096 71.504 658.736 71.12C659.376 70.672 659.696 69.968 659.696 69.008C659.696 62.544 659.664 56.08 659.6 49.616C659.6 43.088 659.6 36.592 659.6 30.128C659.6 29.424 659.536 28.72 659.408 28.016C659.28 27.312 658.864 26.832 658.16 26.576C657.712 26.384 657.232 26.288 656.72 26.288C655.888 26.288 655.056 26.416 654.224 26.672C653.392 26.864 652.528 26.96 651.632 26.96C651.056 26.96 650.768 26.576 650.768 25.808C650.768 25.296 650.96 24.976 651.344 24.848C651.664 24.72 652.016 24.656 652.4 24.656C652.848 24.592 653.264 24.528 653.648 24.464C655.12 24.272 656.592 24.048 658.064 23.792C659.6 23.472 661.072 23.152 662.48 22.832C662.992 22.704 663.536 22.576 664.112 22.448C664.688 22.32 665.264 22.256 665.84 22.256C666.608 22.256 667.12 22.832 667.376 23.984C667.696 25.072 667.856 26.256 667.856 27.536C667.92 28.816 667.952 29.744 667.952 30.32C669.296 29.168 670.8 27.984 672.464 26.768C674.128 25.488 675.888 24.4 677.744 23.504C679.6 22.608 681.456 22.16 683.312 22.16C686.576 22.16 689.328 22.704 691.568 23.792C693.808 24.88 695.728 26.928 697.328 29.936C698.736 28.72 700.336 27.504 702.128 26.288C703.92 25.008 705.776 23.952 707.696 23.12C709.68 22.224 711.632 21.776 713.552 21.776C717.776 21.776 720.976 22.384 723.152 23.6C725.392 24.816 726.896 26.704 727.664 29.264C728.496 31.76 728.912 34.992 728.912 38.96C728.912 43.952 728.88 48.976 728.816 54.032C728.752 59.024 728.72 64.048 728.72 69.104C728.72 70.064 729.136 70.736 729.968 71.12C730.864 71.504 731.728 71.696 732.56 71.696C733.072 71.696 733.552 71.664 734 71.6C734.512 71.536 734.992 71.504 735.44 71.504C735.696 71.504 735.856 71.664 735.92 71.984C736.048 72.304 736.112 72.56 736.112 72.752ZM781.801 46.544C781.801 44.368 781.673 42.096 781.417 39.728C781.161 37.296 780.617 35.024 779.785 32.912C778.953 30.8 777.705 29.104 776.041 27.824C774.377 26.48 772.105 25.808 769.225 25.808C767.497 25.808 765.641 26.256 763.657 27.152C761.737 27.984 760.041 29.136 758.569 30.608C757.161 32.08 756.361 33.776 756.169 35.696C756.041 37.68 755.977 39.696 755.977 41.744C755.977 43.792 755.977 45.84 755.977 47.888C755.977 49.68 755.977 51.504 755.977 53.36C756.041 55.152 756.105 56.976 756.169 58.832C756.361 62.096 757.417 64.88 759.337 67.184C761.257 69.424 763.977 70.544 767.497 70.544C770.825 70.544 773.449 69.808 775.369 68.336C777.289 66.8 778.697 64.816 779.593 62.384C780.553 59.952 781.161 57.36 781.417 54.608C781.673 51.792 781.801 49.104 781.801 46.544ZM791.689 46.64C791.689 51.632 790.793 56.144 789.001 60.176C787.209 64.208 784.521 67.408 780.937 69.776C777.417 72.08 773.001 73.232 767.689 73.232C765.641 73.232 763.529 72.72 761.353 71.696C759.241 70.608 757.449 69.36 755.977 67.952V88.4C755.977 89.296 756.329 89.808 757.033 89.936C757.801 90.064 758.505 90.128 759.145 90.128C759.721 90.128 760.297 90.096 760.873 90.032C761.449 89.968 762.025 89.936 762.601 89.936C763.433 89.936 763.849 90.352 763.849 91.184C763.849 92.144 763.369 92.624 762.409 92.624C760.425 92.624 758.441 92.56 756.457 92.432C754.473 92.304 752.489 92.24 750.505 92.24C748.841 92.24 747.177 92.304 745.513 92.432C743.913 92.56 742.281 92.624 740.617 92.624C740.169 92.624 739.881 92.464 739.753 92.144C739.689 91.824 739.657 91.536 739.657 91.28C739.657 90.384 740.105 89.936 741.001 89.936C741.513 89.936 742.025 89.936 742.537 89.936C743.049 90 743.561 90.032 744.073 90.032C744.521 90.032 745.161 89.968 745.993 89.84C746.889 89.712 747.337 89.328 747.337 88.688C747.337 82.032 747.337 75.344 747.337 68.624C747.401 61.904 747.433 55.216 747.433 48.56C747.433 45.552 747.401 42.576 747.337 39.632C747.337 36.688 747.305 33.744 747.241 30.8C747.177 29.392 746.921 28.432 746.473 27.92C746.025 27.344 745.065 27.056 743.593 27.056C742.953 27.056 742.313 27.152 741.673 27.344C741.033 27.472 740.393 27.536 739.753 27.536C739.049 27.536 738.697 27.216 738.697 26.576C738.697 26 738.985 25.616 739.561 25.424C739.689 25.36 740.265 25.232 741.289 25.04C742.313 24.848 743.529 24.624 744.937 24.368C746.409 24.048 747.849 23.76 749.257 23.504C750.665 23.248 751.849 23.024 752.809 22.832C753.769 22.64 754.281 22.544 754.345 22.544C754.857 22.544 755.209 22.864 755.401 23.504C755.529 23.888 755.593 24.592 755.593 25.616C755.657 26.576 755.689 27.568 755.689 28.592C755.689 29.552 755.689 30.288 755.689 30.8C757.481 28.432 759.753 26.48 762.505 24.944C765.321 23.344 768.233 22.544 771.241 22.544C775.657 22.544 779.369 23.728 782.377 26.096C785.449 28.4 787.753 31.408 789.289 35.12C790.889 38.768 791.689 42.608 791.689 46.64ZM830.127 62.768C829.871 59.888 829.711 57.008 829.647 54.128C829.647 51.184 829.615 48.24 829.551 45.296H828.207C826.223 45.296 824.015 45.616 821.583 46.256C819.215 46.832 816.943 47.728 814.767 48.944C812.591 50.16 810.799 51.696 809.391 53.552C808.047 55.344 807.375 57.424 807.375 59.792C807.375 62.864 808.239 65.2 809.967 66.8C811.695 68.336 814.031 69.104 816.975 69.104C818.383 69.104 819.919 68.784 821.583 68.144C823.247 67.44 824.847 66.608 826.383 65.648C827.919 64.688 829.167 63.728 830.127 62.768ZM846.927 68.912C846.927 69.168 846.895 69.36 846.831 69.488C846.191 70.896 845.103 71.984 843.567 72.752C842.095 73.456 840.623 73.808 839.151 73.808C836.463 73.808 834.511 73.04 833.295 71.504C832.143 69.904 831.215 67.952 830.511 65.648C828.079 67.888 825.391 69.776 822.447 71.312C819.503 72.784 816.335 73.52 812.943 73.52C810.575 73.52 808.335 73.072 806.223 72.176C804.175 71.216 802.511 69.84 801.231 68.048C799.951 66.256 799.311 64.08 799.311 61.52C799.311 58.832 799.983 56.528 801.327 54.608C802.735 52.624 804.495 50.96 806.607 49.616C808.783 48.208 811.087 47.088 813.519 46.256C816.015 45.36 818.351 44.688 820.527 44.24C821.999 43.92 823.503 43.632 825.039 43.376C826.575 43.12 828.079 42.864 829.551 42.608C829.551 40.816 829.455 38.736 829.263 36.368C829.135 34 828.655 32.048 827.823 30.512C826.991 29.04 825.871 27.728 824.463 26.576C823.055 25.424 821.487 24.848 819.759 24.848C816.815 24.848 814.511 25.616 812.847 27.152C811.183 28.688 809.999 30.864 809.295 33.68C809.231 34 809.167 34.352 809.103 34.736C809.103 35.056 809.071 35.376 809.007 35.696C808.943 36.08 808.687 36.432 808.239 36.752C807.855 37.008 807.439 37.136 806.991 37.136C805.775 37.136 804.655 36.848 803.631 36.272C802.671 35.696 802.191 34.736 802.191 33.392C802.191 32.624 802.319 31.952 802.575 31.376C803.407 29.392 804.751 27.76 806.607 26.48C808.463 25.136 810.511 24.112 812.751 23.408C815.055 22.704 817.199 22.352 819.183 22.352C822.639 22.352 825.775 22.992 828.591 24.272C831.407 25.552 833.647 27.44 835.311 29.936C837.039 32.368 837.903 35.44 837.903 39.152C837.903 43.312 837.871 47.504 837.807 51.728C837.807 55.952 837.935 60.176 838.191 64.4C838.255 65.808 838.543 67.056 839.055 68.144C839.567 69.168 840.623 69.68 842.223 69.68C843.055 69.68 843.919 69.488 844.815 69.104C845.775 68.656 846.383 68.432 846.639 68.432C846.831 68.432 846.927 68.592 846.927 68.912ZM906.826 72.56C906.826 73.392 906.346 73.808 905.386 73.808C903.978 73.808 902.538 73.776 901.066 73.712C899.594 73.584 898.122 73.52 896.65 73.52C894.474 73.52 892.234 73.584 889.93 73.712C887.69 73.776 885.45 73.808 883.21 73.808C882.954 73.808 882.794 73.616 882.73 73.232C882.666 72.784 882.634 72.432 882.634 72.176C882.634 71.664 882.954 71.408 883.594 71.408C884.234 71.408 884.746 71.408 885.13 71.408C885.45 71.408 885.77 71.44 886.09 71.504C886.474 71.504 886.826 71.504 887.146 71.504C889.002 71.504 890.026 70.576 890.218 68.72C890.41 64.944 890.474 61.136 890.41 57.296C890.41 53.456 890.41 49.648 890.41 45.872C890.41 45.168 890.41 44.464 890.41 43.76C890.41 42.992 890.41 42.256 890.41 41.552C890.346 40.08 890.25 38.288 890.122 36.176C889.994 34 889.706 32.24 889.258 30.896C888.234 27.568 885.994 25.904 882.538 25.904C879.402 25.904 876.522 26.704 873.898 28.304C871.274 29.904 869.002 31.92 867.082 34.352C867.018 39.024 866.986 43.664 866.986 48.272C866.986 52.88 866.986 57.488 866.986 62.096V68.72C866.986 69.68 867.402 70.384 868.234 70.832C869.066 71.28 869.898 71.504 870.73 71.504C871.242 71.504 871.722 71.472 872.17 71.408C872.682 71.28 873.162 71.216 873.61 71.216C873.866 71.216 874.026 71.376 874.09 71.696C874.154 72.016 874.186 72.272 874.186 72.464C874.186 72.72 874.09 73.008 873.898 73.328C873.77 73.648 873.514 73.808 873.13 73.808C871.722 73.808 870.314 73.776 868.906 73.712C867.562 73.584 866.186 73.52 864.778 73.52C862.602 73.52 860.426 73.584 858.25 73.712C856.074 73.776 853.866 73.808 851.626 73.808C851.306 73.808 851.114 73.616 851.05 73.232C851.05 72.784 851.05 72.432 851.05 72.176C851.05 71.664 851.338 71.408 851.914 71.408C852.49 71.408 852.938 71.408 853.258 71.408C853.578 71.408 853.898 71.44 854.218 71.504C854.538 71.504 854.858 71.504 855.178 71.504C857.034 71.504 858.058 70.576 858.25 68.72C858.314 67.824 858.346 66.928 858.346 66.032C858.346 65.136 858.346 64.24 858.346 63.344C858.346 57.84 858.346 52.336 858.346 46.832C858.346 41.264 858.314 35.728 858.25 30.224C858.25 29.328 858.058 28.432 857.674 27.536C857.29 26.64 856.554 26.192 855.466 26.192C854.634 26.192 853.834 26.32 853.066 26.576C852.298 26.832 851.498 26.96 850.666 26.96C850.218 26.96 849.994 26.64 849.994 26C849.994 25.872 849.994 25.744 849.994 25.616C850.058 25.424 850.122 25.296 850.186 25.232C850.25 25.168 850.346 25.136 850.474 25.136C850.602 25.072 850.698 25.008 850.762 24.944C851.914 24.624 853.098 24.4 854.314 24.272C855.594 24.144 856.81 23.952 857.962 23.696C859.05 23.504 860.106 23.248 861.13 22.928C862.154 22.544 863.178 22.352 864.202 22.352C864.65 22.352 865.002 22.576 865.258 23.024C865.578 23.6 865.834 24.432 866.026 25.52C866.218 26.544 866.346 27.6 866.41 28.688C866.538 29.776 866.602 30.672 866.602 31.376C868.01 29.968 869.674 28.592 871.594 27.248C873.578 25.84 875.626 24.688 877.738 23.792C879.914 22.832 882.026 22.352 884.074 22.352C889.962 22.352 893.93 23.664 895.978 26.288C898.09 28.848 899.146 32.912 899.146 38.48C899.146 43.472 899.114 48.464 899.05 53.456C899.05 58.448 899.05 63.44 899.05 68.432C899.05 69.648 899.402 70.48 900.106 70.928C900.874 71.312 901.77 71.504 902.794 71.504C903.306 71.504 903.818 71.472 904.33 71.408C904.842 71.28 905.322 71.216 905.77 71.216C906.154 71.216 906.41 71.376 906.538 71.696C906.73 71.952 906.826 72.24 906.826 72.56ZM966.042 23.408C966.042 24.048 965.818 24.4 965.37 24.464C964.922 24.528 964.314 24.56 963.546 24.56C962.842 24.56 962.106 24.72 961.338 25.04C960.634 25.36 959.994 26.096 959.418 27.248C956.282 33.392 953.402 39.664 950.778 46.064C948.154 52.464 945.274 58.736 942.138 64.88C940.282 68.592 938.426 72.304 936.57 76.016C934.778 79.792 932.762 83.44 930.522 86.96C929.306 88.88 927.866 90.416 926.202 91.568C924.538 92.72 922.554 93.296 920.25 93.296C918.33 93.296 916.57 92.88 914.97 92.048C913.434 91.216 912.666 89.712 912.666 87.536C912.666 86.128 913.178 84.944 914.202 83.984C915.29 83.024 916.506 82.544 917.85 82.544C918.426 82.544 919.002 82.64 919.578 82.832C919.194 83.6 919.002 84.336 919.002 85.04C919.002 86 919.354 86.736 920.058 87.248C920.826 87.824 921.626 88.112 922.458 88.112C923.738 88.112 924.89 87.728 925.914 86.96C927.002 86.256 927.866 85.392 928.506 84.368C929.658 82.64 930.618 80.72 931.386 78.608C932.218 76.496 932.634 74.416 932.634 72.368C932.634 71.472 932.57 70.576 932.442 69.68C932.314 68.784 932.122 67.92 931.866 67.088C931.482 65.744 931.034 64.432 930.522 63.152C930.01 61.808 929.498 60.496 928.986 59.216C928.154 57.168 927.322 55.152 926.49 53.168C925.722 51.184 924.89 49.2 923.994 47.216C922.778 44.336 921.562 41.456 920.346 38.576C919.194 35.632 917.914 32.784 916.506 30.032C916.314 29.712 916.122 29.392 915.93 29.072C915.802 28.752 915.61 28.432 915.354 28.112C915.034 27.6 914.618 27.184 914.106 26.864C913.658 26.48 913.082 26.288 912.378 26.288C911.93 26.288 911.45 26.32 910.938 26.384C910.426 26.448 909.914 26.48 909.402 26.48C909.082 26.48 908.826 26.352 908.634 26.096C908.442 25.776 908.346 25.488 908.346 25.232C908.346 24.72 908.634 24.4 909.21 24.272C909.85 24.08 910.49 23.952 911.13 23.888C911.834 23.824 912.506 23.76 913.146 23.696C914.554 23.44 915.962 23.184 917.37 22.928C918.778 22.672 920.186 22.48 921.594 22.352C921.786 22.288 921.978 22.256 922.17 22.256C922.362 22.256 922.554 22.256 922.746 22.256C923.386 22.256 923.802 22.448 923.994 22.832C924.25 23.216 924.506 23.664 924.762 24.176C926.234 27.376 927.578 30.672 928.794 34.064C930.01 37.392 931.226 40.72 932.442 44.048C933.722 47.184 934.938 50.352 936.09 53.552C937.242 56.752 938.426 59.952 939.642 63.152C940.09 62.32 940.73 60.944 941.562 59.024C942.458 57.04 943.45 54.8 944.538 52.304C945.69 49.744 946.842 47.088 947.994 44.336C949.146 41.584 950.202 38.96 951.162 36.464C952.186 33.968 952.986 31.824 953.562 30.032C954.202 28.176 954.522 26.896 954.522 26.192C954.522 25.36 954.106 24.88 953.274 24.752C952.442 24.56 951.514 24.496 950.49 24.56C949.466 24.624 948.698 24.656 948.186 24.656C947.93 24.656 947.706 24.528 947.514 24.272C947.322 24.016 947.226 23.76 947.226 23.504C947.226 22.864 947.546 22.544 948.186 22.544C948.89 22.48 949.434 22.448 949.818 22.448C950.906 22.448 952.026 22.48 953.178 22.544C954.33 22.544 955.45 22.544 956.538 22.544C958.01 22.544 959.45 22.512 960.858 22.448C962.33 22.384 963.77 22.352 965.178 22.352C965.498 22.352 965.722 22.48 965.85 22.736C965.978 22.928 966.042 23.152 966.042 23.408Z" fill="#FFFCEC"/>
</svg>
